<?xml version="1.0" encoding="UTF-8" standalone="no"?><svg xmlns="http://www.w3.org/2000/svg" xmlns:xlink="http://www.w3.org/1999/xlink" contentStyleType="text/css" height="1151px" preserveAspectRatio="none" style="width:913px;height:1151px;background:#FFFFFF;" version="1.1" viewBox="0 0 913 1151" width="913px" zoomAndPan="magnify"><defs/><g><rect fill="#F1F1F1" height="36.2969" rx="12.5" ry="12.5" style="stroke:#181818;stroke-width:1.5;" width="74" x="10" y="556.5859"/><text fill="#000000" font-family="sans-serif" font-size="14" lengthAdjust="spacing" textLength="54" x="20" y="579.5811">Finance</text><rect fill="#F1F1F1" height="36.2969" rx="12.5" ry="12.5" style="stroke:#181818;stroke-width:1.5;" width="82" x="134" y="177.9844"/><text fill="#000000" font-family="sans-serif" font-size="14" lengthAdjust="spacing" textLength="62" x="144" y="200.9795">Revenue</text><rect fill="#F1F1F1" height="36.2969" rx="12.5" ry="12.5" style="stroke:#181818;stroke-width:1.5;" width="55" x="266" y="20"/><text fill="#000000" font-family="sans-serif" font-size="14" lengthAdjust="spacing" textLength="35" x="276" y="42.9951">Profit</text><a href="https://www.investopedia.com/ask/answers/031815/what-formula-calculating-profit-margins.asp" target="_top" title="https://www.investopedia.com/ask/answers/031815/what-formula-calculating-profit-margins.asp" xlink:actuate="onRequest" xlink:href="https://www.investopedia.com/ask/answers/031815/what-formula-calculating-profit-margins.asp" xlink:show="new" xlink:title="https://www.investopedia.com/ask/answers/031815/what-formula-calculating-profit-margins.asp" xlink:type="simple"><text fill="#0000FF" font-family="sans-serif" font-size="14" lengthAdjust="spacing" text-decoration="underline" textLength="102" x="374" y="24.6982">Profit Margin %</text></a><path d="M321,38.1484 L331,38.1484 C346,38.1484 346,19.8516 361,19.8516 L371,19.8516 " fill="none" style="stroke:#181818;stroke-width:1.0;"/><a href="https://corporatefinanceinstitute.com/resources/accounting/markup/" target="_top" title="https://corporatefinanceinstitute.com/resources/accounting/markup/" xlink:actuate="onRequest" xlink:href="https://corporatefinanceinstitute.com/resources/accounting/markup/" xlink:show="new" xlink:title="https://corporatefinanceinstitute.com/resources/accounting/markup/" xlink:type="simple"><text fill="#0000FF" font-family="sans-serif" font-size="14" lengthAdjust="spacing" text-decoration="underline" textLength="68" x="374" y="42.9951">Markup %</text></a><path d="M321,38.1484 L331,38.1484 C346,38.1484 346,38.1484 361,38.1484 L371,38.1484 " fill="none" style="stroke:#181818;stroke-width:1.0;"/><a href="https://medium.com/evergreen-business-weekly/why-value-capture-is-the-most-important-business-idea-you-haven-t-read-enough-about-c035c657d091" target="_top" title="https://medium.com/evergreen-business-weekly/why-value-capture-is-the-most-important-business-idea-you-haven-t-read-enough-about-c035c657d091" xlink:actuate="onRequest" xlink:href="https://medium.com/evergreen-business-weekly/why-value-capture-is-the-most-important-business-idea-you-haven-t-read-enough-about-c035c657d091" xlink:show="new" xlink:title="https://medium.com/evergreen-business-weekly/why-value-capture-is-the-most-important-business-idea-you-haven-t-read-enough-about-c035c657d091" xlink:type="simple"><text fill="#0000FF" font-family="sans-serif" font-size="14" lengthAdjust="spacing" text-decoration="underline" textLength="97" x="374" y="61.292">Value Capture</text></a><path d="M321,38.1484 L331,38.1484 C346,38.1484 346,56.4453 361,56.4453 L371,56.4453 " fill="none" style="stroke:#181818;stroke-width:1.0;"/><path d="M216,196.1328 L226,196.1328 C241,196.1328 241,38.1484 256,38.1484 L266,38.1484 " fill="none" style="stroke:#181818;stroke-width:1.0;"/><rect fill="#F1F1F1" height="36.2969" rx="12.5" ry="12.5" style="stroke:#181818;stroke-width:1.5;" width="91" x="266" y="93.1875"/><text fill="#000000" font-family="sans-serif" font-size="14" lengthAdjust="spacing" textLength="71" x="276" y="116.1826">Increasing</text><text fill="#000000" font-family="sans-serif" font-size="14" lengthAdjust="spacing" textLength="120" x="410" y="79.5889">No of. Customers</text><path d="M357,111.3359 L367,111.3359 C382,111.3359 382,74.7422 397,74.7422 L407,74.7422 " fill="none" style="stroke:#181818;stroke-width:1.0;"/><text fill="#000000" font-family="sans-serif" font-size="14" lengthAdjust="spacing" textLength="176" x="410" y="97.8857">Avg. Size of a Transaction</text><path d="M357,111.3359 L367,111.3359 C382,111.3359 382,93.0391 397,93.0391 L407,93.0391 " fill="none" style="stroke:#181818;stroke-width:1.0;"/><text fill="#000000" font-family="sans-serif" font-size="14" lengthAdjust="spacing" textLength="278" x="410" y="116.1826">Frequency of transactions per Customer</text><path d="M357,111.3359 L367,111.3359 C382,111.3359 382,111.3359 397,111.3359 L407,111.3359 " fill="none" style="stroke:#181818;stroke-width:1.0;"/><text fill="#000000" font-family="sans-serif" font-size="14" lengthAdjust="spacing" textLength="84" x="410" y="143.6279">Raise Prices</text><text fill="#000000" font-family="sans-serif" font-size="14" lengthAdjust="spacing" textLength="97" x="547" y="134.4795">Price Elasticity</text><path d="M494,138.7813 L504,138.7813 C519,138.7813 519,129.6328 534,129.6328 L544,129.6328 " fill="none" style="stroke:#181818;stroke-width:1.0;"/><text fill="#000000" font-family="sans-serif" font-size="14" lengthAdjust="spacing" textLength="93" x="547" y="152.7764">Pricing power</text><path d="M494,138.7813 L504,138.7813 C519,138.7813 519,147.9297 534,147.9297 L544,147.9297 " fill="none" style="stroke:#181818;stroke-width:1.0;"/><path d="M357,111.3359 L367,111.3359 C382,111.3359 382,138.7813 397,138.7813 L407,138.7813 " fill="none" style="stroke:#181818;stroke-width:1.0;"/><path d="M216,196.1328 L226,196.1328 C241,196.1328 241,111.3359 256,111.3359 L266,111.3359 " fill="none" style="stroke:#181818;stroke-width:1.0;"/><rect fill="#F1F1F1" height="36.2969" rx="12.5" ry="12.5" style="stroke:#181818;stroke-width:1.5;" width="96" x="266" y="167.0781"/><text fill="#000000" font-family="sans-serif" font-size="14" lengthAdjust="spacing" textLength="76" x="276" y="190.0732">Customers</text><text fill="#000000" font-family="sans-serif" font-size="14" lengthAdjust="spacing" textLength="95" x="415" y="171.7764">Lifetime Value</text><path d="M362,185.2266 L372,185.2266 C387,185.2266 387,166.9297 402,166.9297 L412,166.9297 " fill="none" style="stroke:#181818;stroke-width:1.0;"/><text fill="#000000" font-family="sans-serif" font-size="14" lengthAdjust="spacing" textLength="68" x="415" y="190.0732">Retention</text><path d="M362,185.2266 L372,185.2266 C387,185.2266 387,185.2266 402,185.2266 L412,185.2266 " fill="none" style="stroke:#181818;stroke-width:1.0;"/><text fill="#000000" font-family="sans-serif" font-size="14" lengthAdjust="spacing" textLength="109" x="415" y="208.3701">Acquisition cost</text><path d="M362,185.2266 L372,185.2266 C387,185.2266 387,203.5234 402,203.5234 L412,203.5234 " fill="none" style="stroke:#181818;stroke-width:1.0;"/><path d="M216,196.1328 L226,196.1328 C241,196.1328 241,185.2266 256,185.2266 L266,185.2266 " fill="none" style="stroke:#181818;stroke-width:1.0;"/><rect fill="#F1F1F1" height="36.2969" rx="12.5" ry="12.5" style="stroke:#181818;stroke-width:1.5;" width="88" x="266" y="251.5234"/><text fill="#000000" font-family="sans-serif" font-size="14" lengthAdjust="spacing" textLength="68" x="276" y="274.5186">Expenses</text><rect fill="#F1F1F1" height="36.2969" rx="12.5" ry="12.5" style="stroke:#181818;stroke-width:1.5;" width="95" x="404" y="223.375"/><text fill="#000000" font-family="sans-serif" font-size="14" lengthAdjust="spacing" textLength="75" x="414" y="246.3701">Overheads</text><text fill="#000000" font-family="sans-serif" font-size="14" lengthAdjust="spacing" textLength="80" x="552" y="237.2217">Fixed Costs</text><path d="M499,241.5234 L509,241.5234 C524,241.5234 524,232.375 539,232.375 L549,232.375 " fill="none" style="stroke:#181818;stroke-width:1.0;"/><text fill="#000000" font-family="sans-serif" font-size="14" lengthAdjust="spacing" textLength="98" x="552" y="255.5186">Variable Costs</text><path d="M499,241.5234 L509,241.5234 C524,241.5234 524,250.6719 539,250.6719 L549,250.6719 " fill="none" style="stroke:#181818;stroke-width:1.0;"/><path d="M354,269.6719 L364,269.6719 C379,269.6719 379,241.5234 394,241.5234 L404,241.5234 " fill="none" style="stroke:#181818;stroke-width:1.0;"/><rect fill="#F1F1F1" height="36.2969" rx="12.5" ry="12.5" style="stroke:#181818;stroke-width:1.5;" width="91" x="404" y="279.6719"/><text fill="#000000" font-family="sans-serif" font-size="14" lengthAdjust="spacing" textLength="71" x="414" y="302.667">Reduction</text><text fill="#000000" font-family="sans-serif" font-size="14" lengthAdjust="spacing" textLength="43" x="548" y="293.5186">Waste</text><path d="M495,297.8203 L505,297.8203 C520,297.8203 520,288.6719 535,288.6719 L545,288.6719 " fill="none" style="stroke:#181818;stroke-width:1.0;"/><text fill="#000000" font-family="sans-serif" font-size="14" lengthAdjust="spacing" textLength="113" x="548" y="311.8154">Degradation risk</text><path d="M495,297.8203 L505,297.8203 C520,297.8203 520,306.9688 535,306.9688 L545,306.9688 " fill="none" style="stroke:#181818;stroke-width:1.0;"/><path d="M354,269.6719 L364,269.6719 C379,269.6719 379,297.8203 394,297.8203 L404,297.8203 " fill="none" style="stroke:#181818;stroke-width:1.0;"/><path d="M216,196.1328 L226,196.1328 C241,196.1328 241,269.6719 256,269.6719 L266,269.6719 " fill="none" style="stroke:#181818;stroke-width:1.0;"/><rect fill="#F1F1F1" height="36.2969" rx="12.5" ry="12.5" style="stroke:#181818;stroke-width:1.5;" width="93" x="266" y="335.9688"/><text fill="#000000" font-family="sans-serif" font-size="14" lengthAdjust="spacing" textLength="73" x="276" y="358.9639">Sufficiency</text><text fill="#000000" font-family="sans-serif" font-size="14" lengthAdjust="spacing" textLength="71" x="412" y="349.8154">Subjective</text><path d="M359,354.1172 L369,354.1172 C384,354.1172 384,344.9688 399,344.9688 L409,344.9688 " fill="none" style="stroke:#181818;stroke-width:1.0;"/><text fill="#000000" font-family="sans-serif" font-size="14" lengthAdjust="spacing" textLength="169" x="412" y="368.1123">Target Monthly Revenue</text><path d="M359,354.1172 L369,354.1172 C384,354.1172 384,363.2656 399,363.2656 L409,363.2656 " fill="none" style="stroke:#181818;stroke-width:1.0;"/><path d="M216,196.1328 L226,196.1328 C241,196.1328 241,354.1172 256,354.1172 L266,354.1172 " fill="none" style="stroke:#181818;stroke-width:1.0;"/><path d="M84,574.7344 L94,574.7344 C109,574.7344 109,196.1328 124,196.1328 L134,196.1328 " fill="none" style="stroke:#181818;stroke-width:1.0;"/><rect fill="#F1F1F1" height="36.2969" rx="12.5" ry="12.5" style="stroke:#181818;stroke-width:1.5;" width="98" x="134" y="724.0703"/><text fill="#000000" font-family="sans-serif" font-size="14" lengthAdjust="spacing" textLength="78" x="144" y="747.0654">Accounting</text><rect fill="#F1F1F1" height="36.2969" rx="12.5" ry="12.5" style="stroke:#181818;stroke-width:1.5;" width="83" x="282" y="392.2656"/><text fill="#000000" font-family="sans-serif" font-size="14" lengthAdjust="spacing" textLength="63" x="292" y="415.2607">Valuation</text><text fill="#000000" font-family="sans-serif" font-size="14" lengthAdjust="spacing" textLength="124" x="418" y="406.1123">Investment metric</text><path d="M365,410.4141 L375,410.4141 C390,410.4141 390,401.2656 405,401.2656 L415,401.2656 " fill="none" style="stroke:#181818;stroke-width:1.0;"/><text fill="#000000" font-family="sans-serif" font-size="14" lengthAdjust="spacing" textLength="117" x="418" y="424.4092">Break Even Point</text><path d="M365,410.4141 L375,410.4141 C390,410.4141 390,419.5625 405,419.5625 L415,419.5625 " fill="none" style="stroke:#181818;stroke-width:1.0;"/><path d="M232,742.2188 L242,742.2188 C257,742.2188 257,410.4141 272,410.4141 L282,410.4141 " fill="none" style="stroke:#181818;stroke-width:1.0;"/><rect fill="#F1F1F1" height="36.2969" rx="12.5" ry="12.5" style="stroke:#181818;stroke-width:1.5;" width="165" x="282" y="448.5625"/><text fill="#000000" font-family="sans-serif" font-size="14" lengthAdjust="spacing" textLength="145" x="292" y="471.5576">Cash Flow statement</text><text fill="#000000" font-family="sans-serif" font-size="14" lengthAdjust="spacing" textLength="165" x="500" y="444.1123">Period based (D/W/M/Y)</text><path d="M447,466.7109 L457,466.7109 C472,466.7109 472,439.2656 487,439.2656 L497,439.2656 " fill="none" style="stroke:#181818;stroke-width:1.0;"/><text fill="#000000" font-family="sans-serif" font-size="14" lengthAdjust="spacing" textLength="76" x="500" y="462.4092">Operations</text><text fill="#000000" font-family="sans-serif" font-size="14" lengthAdjust="spacing" textLength="111" x="629" y="462.4092">Cash Flow Cycle</text><path d="M576,457.5625 L586,457.5625 C601,457.5625 601,457.5625 616,457.5625 L626,457.5625 " fill="none" style="stroke:#181818;stroke-width:1.0;"/><path d="M447,466.7109 L457,466.7109 C472,466.7109 472,457.5625 487,457.5625 L497,457.5625 " fill="none" style="stroke:#181818;stroke-width:1.0;"/><text fill="#000000" font-family="sans-serif" font-size="14" lengthAdjust="spacing" textLength="62" x="500" y="480.7061">Investing</text><path d="M447,466.7109 L457,466.7109 C472,466.7109 472,475.8594 487,475.8594 L497,475.8594 " fill="none" style="stroke:#181818;stroke-width:1.0;"/><text fill="#000000" font-family="sans-serif" font-size="14" lengthAdjust="spacing" textLength="66" x="500" y="499.0029">Financing</text><text fill="#000000" font-family="sans-serif" font-size="14" lengthAdjust="spacing" textLength="124" x="619" y="499.0029">Purchasing Power</text><path d="M566,494.1563 L576,494.1563 C591,494.1563 591,494.1563 606,494.1563 L616,494.1563 " fill="none" style="stroke:#181818;stroke-width:1.0;"/><path d="M447,466.7109 L457,466.7109 C472,466.7109 472,494.1563 487,494.1563 L497,494.1563 " fill="none" style="stroke:#181818;stroke-width:1.0;"/><path d="M232,742.2188 L242,742.2188 C257,742.2188 257,466.7109 272,466.7109 L282,466.7109 " fill="none" style="stroke:#181818;stroke-width:1.0;"/><rect fill="#F1F1F1" height="36.2969" rx="12.5" ry="12.5" style="stroke:#181818;stroke-width:1.5;" width="147" x="282" y="562.918"/><text fill="#000000" font-family="sans-serif" font-size="14" lengthAdjust="spacing" textLength="127" x="292" y="585.9131">Income Statement</text><text fill="#000000" font-family="sans-serif" font-size="14" lengthAdjust="spacing" textLength="50" x="482" y="526.4482">Accrual</text><text fill="#000000" font-family="sans-serif" font-size="14" lengthAdjust="spacing" textLength="236" x="585" y="517.2998">Related Sale / Expense categories</text><path d="M532,521.6016 L542,521.6016 C557,521.6016 557,512.4531 572,512.4531 L582,512.4531 " fill="none" style="stroke:#181818;stroke-width:1.0;"/><text fill="#000000" font-family="sans-serif" font-size="14" lengthAdjust="spacing" textLength="84" x="585" y="535.5967">On an Event</text><path d="M532,521.6016 L542,521.6016 C557,521.6016 557,530.75 572,530.75 L582,530.75 " fill="none" style="stroke:#181818;stroke-width:1.0;"/><path d="M429,581.0664 L439,581.0664 C454,581.0664 454,521.6016 469,521.6016 L479,521.6016 " fill="none" style="stroke:#181818;stroke-width:1.0;"/><text fill="#000000" font-family="sans-serif" font-size="14" lengthAdjust="spacing" textLength="62" x="482" y="553.8936">Revenue</text><path d="M429,581.0664 L439,581.0664 C454,581.0664 454,549.0469 469,549.0469 L479,549.0469 " fill="none" style="stroke:#181818;stroke-width:1.0;"/><text fill="#000000" font-family="sans-serif" font-size="14" lengthAdjust="spacing" textLength="130" x="482" y="572.1904">Cost of goods sold</text><path d="M429,581.0664 L439,581.0664 C454,581.0664 454,567.3438 469,567.3438 L479,567.3438 " fill="none" style="stroke:#181818;stroke-width:1.0;"/><text fill="#000000" font-family="sans-serif" font-size="14" lengthAdjust="spacing" textLength="68" x="482" y="590.4873">Expenses</text><path d="M429,581.0664 L439,581.0664 C454,581.0664 454,585.6406 469,585.6406 L479,585.6406 " fill="none" style="stroke:#181818;stroke-width:1.0;"/><text fill="#000000" font-family="sans-serif" font-size="14" lengthAdjust="spacing" textLength="41" x="482" y="608.7842">Taxes</text><path d="M429,581.0664 L439,581.0664 C454,581.0664 454,603.9375 469,603.9375 L479,603.9375 " fill="none" style="stroke:#181818;stroke-width:1.0;"/><text fill="#000000" font-family="sans-serif" font-size="14" lengthAdjust="spacing" textLength="82" x="482" y="627.0811">NET PROFIT</text><path d="M429,581.0664 L439,581.0664 C454,581.0664 454,622.2344 469,622.2344 L479,622.2344 " fill="none" style="stroke:#181818;stroke-width:1.0;"/><text fill="#000000" font-family="sans-serif" font-size="14" lengthAdjust="spacing" textLength="171" x="482" y="645.3779">Estimates / Assumptions</text><a href="https://corporatefinanceinstitute.com/resources/accounting/depreciated-cost/" target="_top" title="https://corporatefinanceinstitute.com/resources/accounting/depreciated-cost/" xlink:actuate="onRequest" xlink:href="https://corporatefinanceinstitute.com/resources/accounting/depreciated-cost/" xlink:show="new" xlink:title="https://corporatefinanceinstitute.com/resources/accounting/depreciated-cost/" xlink:type="simple"><text fill="#0000FF" font-family="sans-serif" font-size="14" lengthAdjust="spacing" text-decoration="underline" textLength="195" x="706" y="636.2295">Depreciation / Amoritazation</text></a><path d="M653,640.5313 L663,640.5313 C678,640.5313 678,631.3828 693,631.3828 L703,631.3828 " fill="none" style="stroke:#181818;stroke-width:1.0;"/><a href="https://corporatefinanceinstitute.com/resources/accounting/matching-principle/" target="_top" title="https://corporatefinanceinstitute.com/resources/accounting/matching-principle/" xlink:actuate="onRequest" xlink:href="https://corporatefinanceinstitute.com/resources/accounting/matching-principle/" xlink:show="new" xlink:title="https://corporatefinanceinstitute.com/resources/accounting/matching-principle/" xlink:type="simple"><text fill="#0000FF" font-family="sans-serif" font-size="14" lengthAdjust="spacing" text-decoration="underline" textLength="125" x="706" y="654.5264">Matching principle</text></a><path d="M653,640.5313 L663,640.5313 C678,640.5313 678,649.6797 693,649.6797 L703,649.6797 " fill="none" style="stroke:#181818;stroke-width:1.0;"/><path d="M429,581.0664 L439,581.0664 C454,581.0664 454,640.5313 469,640.5313 L479,640.5313 " fill="none" style="stroke:#181818;stroke-width:1.0;"/><path d="M232,742.2188 L242,742.2188 C257,742.2188 257,581.0664 272,581.0664 L282,581.0664 " fill="none" style="stroke:#181818;stroke-width:1.0;"/><rect fill="#F1F1F1" height="36.2969" rx="12.5" ry="12.5" style="stroke:#181818;stroke-width:1.5;" width="120" x="282" y="760.3125"/><text fill="#000000" font-family="sans-serif" font-size="14" lengthAdjust="spacing" textLength="100" x="292" y="783.3076">Balance Sheet</text><rect fill="#F1F1F1" height="36.2969" rx="12.5" ry="12.5" style="stroke:#181818;stroke-width:1.5;" width="101" x="452" y="668.8281"/><text fill="#000000" font-family="sans-serif" font-size="14" lengthAdjust="spacing" textLength="81" x="462" y="691.8232">Time based</text><path d="M402,778.4609 L412,778.4609 C427,778.4609 427,686.9766 442,686.9766 L452,686.9766 " fill="none" style="stroke:#181818;stroke-width:1.0;"/><text fill="#000000" font-family="sans-serif" font-size="14" lengthAdjust="spacing" textLength="47" x="455" y="756.5654">Assets</text><text fill="#000000" font-family="sans-serif" font-size="14" lengthAdjust="spacing" textLength="35" x="555" y="729.1201">Cash</text><path d="M502,751.7188 L512,751.7188 C527,751.7188 527,724.2734 542,724.2734 L552,724.2734 " fill="none" style="stroke:#181818;stroke-width:1.0;"/><text fill="#000000" font-family="sans-serif" font-size="14" lengthAdjust="spacing" textLength="144" x="555" y="747.417">Accounts Receivable</text><path d="M502,751.7188 L512,751.7188 C527,751.7188 527,742.5703 542,742.5703 L552,742.5703 " fill="none" style="stroke:#181818;stroke-width:1.0;"/><text fill="#000000" font-family="sans-serif" font-size="14" lengthAdjust="spacing" textLength="63" x="555" y="765.7139">Inventory</text><path d="M502,751.7188 L512,751.7188 C527,751.7188 527,760.8672 542,760.8672 L552,760.8672 " fill="none" style="stroke:#181818;stroke-width:1.0;"/><text fill="#000000" font-family="sans-serif" font-size="14" lengthAdjust="spacing" textLength="138" x="555" y="784.0107">Equipment/Property</text><path d="M502,751.7188 L512,751.7188 C527,751.7188 527,779.1641 542,779.1641 L552,779.1641 " fill="none" style="stroke:#181818;stroke-width:1.0;"/><path d="M402,778.4609 L412,778.4609 C427,778.4609 427,751.7188 442,751.7188 L452,751.7188 " fill="none" style="stroke:#181818;stroke-width:1.0;"/><text fill="#000000" font-family="sans-serif" font-size="14" lengthAdjust="spacing" textLength="61" x="455" y="820.6045">Liabilities</text><text fill="#000000" font-family="sans-serif" font-size="14" lengthAdjust="spacing" textLength="34" x="569" y="802.3076">Debt</text><path d="M516,815.7578 L526,815.7578 C541,815.7578 541,797.4609 556,797.4609 L566,797.4609 " fill="none" style="stroke:#181818;stroke-width:1.0;"/><text fill="#000000" font-family="sans-serif" font-size="14" lengthAdjust="spacing" textLength="122" x="569" y="820.6045">Accounts Payable</text><path d="M516,815.7578 L526,815.7578 C541,815.7578 541,815.7578 556,815.7578 L566,815.7578 " fill="none" style="stroke:#181818;stroke-width:1.0;"/><text fill="#000000" font-family="sans-serif" font-size="14" lengthAdjust="spacing" textLength="203" x="569" y="838.9014">Other obligations (Salary etc;)</text><path d="M516,815.7578 L526,815.7578 C541,815.7578 541,834.0547 556,834.0547 L566,834.0547 " fill="none" style="stroke:#181818;stroke-width:1.0;"/><path d="M402,778.4609 L412,778.4609 C427,778.4609 427,815.7578 442,815.7578 L452,815.7578 " fill="none" style="stroke:#181818;stroke-width:1.0;"/><text fill="#000000" font-family="sans-serif" font-size="14" lengthAdjust="spacing" textLength="42" x="455" y="875.4951">Equity</text><text fill="#000000" font-family="sans-serif" font-size="14" lengthAdjust="spacing" textLength="39" x="550" y="857.1982">Stock</text><path d="M497,870.6484 L507,870.6484 C522,870.6484 522,852.3516 537,852.3516 L547,852.3516 " fill="none" style="stroke:#181818;stroke-width:1.0;"/><text fill="#000000" font-family="sans-serif" font-size="14" lengthAdjust="spacing" textLength="46" x="550" y="875.4951">Capital</text><path d="M497,870.6484 L507,870.6484 C522,870.6484 522,870.6484 537,870.6484 L547,870.6484 " fill="none" style="stroke:#181818;stroke-width:1.0;"/><text fill="#000000" font-family="sans-serif" font-size="14" lengthAdjust="spacing" textLength="126" x="550" y="893.792">Retained Earnings</text><path d="M497,870.6484 L507,870.6484 C522,870.6484 522,888.9453 537,888.9453 L547,888.9453 " fill="none" style="stroke:#181818;stroke-width:1.0;"/><path d="M402,778.4609 L412,778.4609 C427,778.4609 427,870.6484 442,870.6484 L452,870.6484 " fill="none" style="stroke:#181818;stroke-width:1.0;"/><path d="M232,742.2188 L242,742.2188 C257,742.2188 257,778.4609 272,778.4609 L282,778.4609 " fill="none" style="stroke:#181818;stroke-width:1.0;"/><rect fill="#F1F1F1" height="36.2969" rx="12.5" ry="12.5" style="stroke:#181818;stroke-width:1.5;" width="126" x="282" y="925.6875"/><text fill="#000000" font-family="sans-serif" font-size="14" lengthAdjust="spacing" textLength="106" x="292" y="948.6826">Financial Ratios</text><text fill="#000000" font-family="sans-serif" font-size="14" lengthAdjust="spacing" textLength="89" x="461" y="912.0889">Industry sets</text><path d="M408,943.8359 L418,943.8359 C433,943.8359 433,907.2422 448,907.2422 L458,907.2422 " fill="none" style="stroke:#181818;stroke-width:1.0;"/><text fill="#000000" font-family="sans-serif" font-size="14" lengthAdjust="spacing" textLength="35" x="461" y="930.3857">Profit</text><path d="M408,943.8359 L418,943.8359 C433,943.8359 433,925.5391 448,925.5391 L458,925.5391 " fill="none" style="stroke:#181818;stroke-width:1.0;"/><text fill="#000000" font-family="sans-serif" font-size="14" lengthAdjust="spacing" textLength="101" x="461" y="948.6826">Debt Leverage</text><path d="M408,943.8359 L418,943.8359 C433,943.8359 433,943.8359 448,943.8359 L458,943.8359 " fill="none" style="stroke:#181818;stroke-width:1.0;"/><text fill="#000000" font-family="sans-serif" font-size="14" lengthAdjust="spacing" textLength="64" x="461" y="966.9795">Efficiency</text><text fill="#000000" font-family="sans-serif" font-size="14" lengthAdjust="spacing" textLength="63" x="578" y="966.9795">Inventory</text><path d="M525,962.1328 L535,962.1328 C550,962.1328 550,962.1328 565,962.1328 L575,962.1328 " fill="none" style="stroke:#181818;stroke-width:1.0;"/><path d="M408,943.8359 L418,943.8359 C433,943.8359 433,962.1328 448,962.1328 L458,962.1328 " fill="none" style="stroke:#181818;stroke-width:1.0;"/><text fill="#000000" font-family="sans-serif" font-size="14" lengthAdjust="spacing" textLength="55" x="461" y="985.2764">Liquidity</text><path d="M408,943.8359 L418,943.8359 C433,943.8359 433,980.4297 448,980.4297 L458,980.4297 " fill="none" style="stroke:#181818;stroke-width:1.0;"/><path d="M232,742.2188 L242,742.2188 C257,742.2188 257,943.8359 272,943.8359 L282,943.8359 " fill="none" style="stroke:#181818;stroke-width:1.0;"/><rect fill="#F1F1F1" height="36.2969" rx="12.5" ry="12.5" style="stroke:#181818;stroke-width:1.5;" width="170" x="282" y="1027.7266"/><text fill="#000000" font-family="sans-serif" font-size="14" lengthAdjust="spacing" textLength="150" x="292" y="1050.7217">Cost/Benefit analyses</text><rect fill="#F1F1F1" height="36.2969" rx="12.5" ry="12.5" style="stroke:#181818;stroke-width:1.5;" width="138" x="502" y="999.5781"/><text fill="#000000" font-family="sans-serif" font-size="14" lengthAdjust="spacing" textLength="118" x="512" y="1022.5732">Quality Decisions</text><path d="M452,1045.875 L462,1045.875 C477,1045.875 477,1017.7266 492,1017.7266 L502,1017.7266 " fill="none" style="stroke:#181818;stroke-width:1.0;"/><rect fill="#F1F1F1" height="36.2969" rx="12.5" ry="12.5" style="stroke:#181818;stroke-width:1.5;" width="176" x="502" y="1055.875"/><text fill="#000000" font-family="sans-serif" font-size="14" lengthAdjust="spacing" textLength="156" x="512" y="1078.8701">Non-Economic Factors</text><text fill="#000000" font-family="sans-serif" font-size="14" lengthAdjust="spacing" textLength="75" x="731" y="1069.7217">Intangibles</text><path d="M678,1074.0234 L688,1074.0234 C703,1074.0234 703,1064.875 718,1064.875 L728,1064.875 " fill="none" style="stroke:#181818;stroke-width:1.0;"/><text fill="#000000" font-family="sans-serif" font-size="14" lengthAdjust="spacing" textLength="139" x="731" y="1088.0186">Small improvements</text><path d="M678,1074.0234 L688,1074.0234 C703,1074.0234 703,1083.1719 718,1083.1719 L728,1083.1719 " fill="none" style="stroke:#181818;stroke-width:1.0;"/><path d="M452,1045.875 L462,1045.875 C477,1045.875 477,1074.0234 492,1074.0234 L502,1074.0234 " fill="none" style="stroke:#181818;stroke-width:1.0;"/><path d="M232,742.2188 L242,742.2188 C257,742.2188 257,1045.875 272,1045.875 L282,1045.875 " fill="none" style="stroke:#181818;stroke-width:1.0;"/><path d="M84,574.7344 L94,574.7344 C109,574.7344 109,742.2188 124,742.2188 L134,742.2188 " fill="none" style="stroke:#181818;stroke-width:1.0;"/><rect fill="#F1F1F1" height="36.2969" rx="12.5" ry="12.5" style="stroke:#181818;stroke-width:1.5;" width="64" x="134" y="1093.1719"/><text fill="#000000" font-family="sans-serif" font-size="14" lengthAdjust="spacing" textLength="44" x="144" y="1116.167">Books</text><text fill="#000000" font-family="sans-serif" font-size="14" lengthAdjust="spacing" textLength="268" x="251" y="1116.167">Financial Intelligence for Entrepreneurs</text><path d="M198,1111.3203 L208,1111.3203 C223,1111.3203 223,1111.3203 238,1111.3203 L248,1111.3203 " fill="none" style="stroke:#181818;stroke-width:1.0;"/><path d="M84,574.7344 L94,574.7344 C109,574.7344 109,1111.3203 124,1111.3203 L134,1111.3203 " fill="none" style="stroke:#181818;stroke-width:1.0;"/><!--SRC=[fLRRSjis47tNL-nBPXpFKBHyQ-g-9BQbZ5qxLYt5cKucuu70bOIA11XS92jVtmEA5xdfK_j4SW7idZrxTi7tpWlh2wMpGfIzGnefBRJatk4XFVAQTOYlXpIsPgvyV3ryfgzVbzwNxY9DDvjDN-arEszApfJeIrEamgrIeTs6hKkFJWRl1cVfPYbyCZUs2Bb8fCWbdbxfHL9MVfD2s8NIhYzSMOUY-yf4RxvzQwDI4rOQMnehFCztQ77KAnyyL_4jEnEiP9SAAKtGCL2A2AjGfj4jdlI6_irlWHn2KJb1xdPXcNKo2qvfTYxPCA_oBNBP9ckH1qOYfG-M4-KIl-IaCCudgW0oBxJlpgcCHR8r8LaA49hunBB84jOcB9Q9c9dW4tbqSYRFptx9ZduTq5DqJbSxvpkOTACbJi7XeaRzoP2Pz-agWFe2JDVc3-j5doRg1sEL14qj2Y6aLqRN6qQMlmVMSXit-6xPKScsTLTlVXJACGgYG6PbWgtwec4kGBbKVhjl1pmgpMPt_YTiTshENXMyIx09mPxr7huFydjGJaKBIH1QUHg-bAnTZO4UK9ebA6mXZTGBPtI5tQtfILWbPZdlMH4g2nqLsFG5EN3pSSqBAp9H1RRAhQh0ap2V8wt8Lurl4cP_CRoicmIcq2b3haRxPRxTQngaqgYlyXMp5dkPtbHzKo1xAjY3lTf-YKAlQ0WtD3PAxnYu4cv9ezni2FtgEPwgju_PAfFHJ3XmS72TVadlqp_VreiFA6eLioMcStIrbJc_mjAfQpS5ckyO1GsrhFG7K4s18KhKboR_G8IyRH1vS_IHqUl0DX4eHzhKaYIC2sDLfwm7JK9NYVjM7Eq4Yj1HogZQXJ6P8sVoh5vu9OzOaPVs_TDmIkF7Xz7DjDcBD0k4Te3omRbGbA_ewKRRVvWn6PUMfOhP9b6xAKHLMwAg4B10mbxygBxh0VH_Wo8PkToDKeMIbJd78RUpKMkhnyYboADRcYoPToJJD7PafPwcVCwnVwMNvhqMj4DT06qT-wjPYWBItjXs70pHncKKHOfv3XNwRJi5n4pbQF2kyDSyyp_568ljVe07J5XBPfQhnKxGT0112RibzlAtHkynQZUI9jx8LPT82UfpwcJf1UPpHaDXDRYgq3J2nxx76CQr_P5Xc25OIytpwoinfa1tyT8GYqQlmzUpuoUM8XV0czM8AtsdbwmvNdz2YtpRZhm_q4_OXZ0Imx7HAou1dGobqQPGaaOOvCQwBXPkeOK2XQrfKeWy9znGrgohXeqhT6dCgjhol9SzJdCEhZcg1HSt3RMtKSoQ0sAyP_mlrFyClJ4qvJ_Vtn6oZ-1eq3y-EZxk3quFfhZ8W9cEpcdmxkBuz69mGX_lfnJNt_OEFexlQ2TfoXJuLRCGQ_ksTolMWXwZmWk-Y5DCtrx_tXY0PQsiqTN8kNswxpQSdoQNu6x25b3ewRvtpNCHSeyJqcGeyWLzdewITxqxK1DGgGjYtRkAWhDRh4t-1W00]--></g></svg>