<?xml version="1.0" encoding="UTF-8" standalone="no"?><svg xmlns="http://www.w3.org/2000/svg" xmlns:xlink="http://www.w3.org/1999/xlink" contentStyleType="text/css" height="1032px" preserveAspectRatio="none" style="width:987px;height:1032px;background:#FFFFFF;" version="1.1" viewBox="0 0 987 1032" width="987px" zoomAndPan="magnify"><defs/><g><rect fill="#F1F1F1" height="36.2969" rx="12.5" ry="12.5" style="stroke:#181818;stroke-width:1.5;" width="57" x="10" y="497.1211"/><text fill="#000000" font-family="sans-serif" font-size="14" lengthAdjust="spacing" textLength="37" x="20" y="520.1162">Sales</text><rect fill="#F1F1F1" height="36.2969" rx="12.5" ry="12.5" style="stroke:#181818;stroke-width:1.5;" width="109" x="117" y="335.9688"/><text fill="#000000" font-family="sans-serif" font-size="14" lengthAdjust="spacing" textLength="89" x="127" y="358.9639">Transactions</text><rect fill="#F1F1F1" height="36.2969" rx="12.5" ry="12.5" style="stroke:#181818;stroke-width:1.5;" width="56" x="276" y="28.4453"/><text fill="#000000" font-family="sans-serif" font-size="14" lengthAdjust="spacing" textLength="36" x="286" y="51.4404">Trust</text><text fill="#000000" font-family="sans-serif" font-size="14" lengthAdjust="spacing" textLength="138" x="385" y="23.9951">Disclose downsides</text><path d="M332,46.5938 L342,46.5938 C357,46.5938 357,19.1484 372,19.1484 L382,19.1484 " fill="none" style="stroke:#181818;stroke-width:1.0;"/><text fill="#000000" font-family="sans-serif" font-size="14" lengthAdjust="spacing" textLength="90" x="385" y="42.292">'Reactivation'</text><path d="M332,46.5938 L342,46.5938 C357,46.5938 357,37.4453 372,37.4453 L382,37.4453 " fill="none" style="stroke:#181818;stroke-width:1.0;"/><text fill="#000000" font-family="sans-serif" font-size="14" lengthAdjust="spacing" textLength="57" x="385" y="60.5889">Reviews</text><path d="M332,46.5938 L342,46.5938 C357,46.5938 357,55.7422 372,55.7422 L382,55.7422 " fill="none" style="stroke:#181818;stroke-width:1.0;"/><text fill="#000000" font-family="sans-serif" font-size="14" lengthAdjust="spacing" textLength="92" x="385" y="78.8857">Credit History</text><path d="M332,46.5938 L342,46.5938 C357,46.5938 357,74.0391 372,74.0391 L382,74.0391 " fill="none" style="stroke:#181818;stroke-width:1.0;"/><path d="M226,354.1172 L236,354.1172 C251,354.1172 251,46.5938 266,46.5938 L276,46.5938 " fill="none" style="stroke:#181818;stroke-width:1.0;"/><rect fill="#F1F1F1" height="36.2969" rx="12.5" ry="12.5" style="stroke:#181818;stroke-width:1.5;" width="139" x="276" y="93.1875"/><text fill="#000000" font-family="sans-serif" font-size="14" lengthAdjust="spacing" textLength="119" x="286" y="116.1826">Common Ground</text><rect fill="#F1F1F1" height="36.2969" rx="12.5" ry="12.5" style="stroke:#181818;stroke-width:1.5;" width="139" x="465" y="93.1875"/><text fill="#000000" font-family="sans-serif" font-size="14" lengthAdjust="spacing" textLength="119" x="475" y="116.1826">Aligning Interests</text><path d="M415,111.3359 L425,111.3359 C440,111.3359 440,111.3359 455,111.3359 L465,111.3359 " fill="none" style="stroke:#181818;stroke-width:1.0;"/><path d="M226,354.1172 L236,354.1172 C251,354.1172 251,111.3359 266,111.3359 L276,111.3359 " fill="none" style="stroke:#181818;stroke-width:1.0;"/><rect fill="#F1F1F1" height="36.2969" rx="12.5" ry="12.5" style="stroke:#181818;stroke-width:1.5;" width="148" x="276" y="247.3008"/><text fill="#000000" font-family="sans-serif" font-size="14" lengthAdjust="spacing" textLength="128" x="286" y="270.2959">Pricing Uncertainty</text><rect fill="#F1F1F1" height="36.2969" rx="12.5" ry="12.5" style="stroke:#181818;stroke-width:1.5;" width="84" x="474" y="149.4844"/><text fill="#000000" font-family="sans-serif" font-size="14" lengthAdjust="spacing" textLength="64" x="484" y="172.4795">Rationale</text><path d="M424,265.4492 L434,265.4492 C449,265.4492 449,167.6328 464,167.6328 L474,167.6328 " fill="none" style="stroke:#181818;stroke-width:1.0;"/><rect fill="#F1F1F1" height="36.2969" rx="12.5" ry="12.5" style="stroke:#181818;stroke-width:1.5;" width="80" x="474" y="205.7813"/><text fill="#000000" font-family="sans-serif" font-size="14" lengthAdjust="spacing" textLength="60" x="484" y="228.7764">Auctions</text><path d="M424,265.4492 L434,265.4492 C449,265.4492 449,223.9297 464,223.9297 L474,223.9297 " fill="none" style="stroke:#181818;stroke-width:1.0;"/><rect fill="#F1F1F1" height="36.2969" rx="12.5" ry="12.5" style="stroke:#181818;stroke-width:1.5;" width="131" x="474" y="262.0781"/><text fill="#000000" font-family="sans-serif" font-size="14" lengthAdjust="spacing" textLength="111" x="484" y="285.0732">Pricing Methods</text><text fill="#000000" font-family="sans-serif" font-size="14" lengthAdjust="spacing" textLength="128" x="658" y="239.3311">Replacement Cost</text><path d="M605,280.2266 L615,280.2266 C630,280.2266 630,234.4844 645,234.4844 L655,234.4844 " fill="none" style="stroke:#181818;stroke-width:1.0;"/><text fill="#000000" font-family="sans-serif" font-size="14" lengthAdjust="spacing" textLength="134" x="658" y="257.6279">Market Comparison</text><path d="M605,280.2266 L615,280.2266 C630,280.2266 630,252.7813 645,252.7813 L655,252.7813 " fill="none" style="stroke:#181818;stroke-width:1.0;"/><text fill="#000000" font-family="sans-serif" font-size="14" lengthAdjust="spacing" textLength="112" x="658" y="285.0732">Income Streams</text><a href="https://www.calculatorsoup.com/calculators/financial/net-present-value-calculator.php" target="_top" title="https://www.calculatorsoup.com/calculators/financial/net-present-value-calculator.php" xlink:actuate="onRequest" xlink:href="https://www.calculatorsoup.com/calculators/financial/net-present-value-calculator.php" xlink:show="new" xlink:title="https://www.calculatorsoup.com/calculators/financial/net-present-value-calculator.php" xlink:type="simple"><text fill="#0000FF" font-family="sans-serif" font-size="14" lengthAdjust="spacing" text-decoration="underline" textLength="124" x="823" y="275.9248">Net Present Value</text></a><path d="M770,280.2266 L780,280.2266 C795,280.2266 795,271.0781 810,271.0781 L820,271.0781 " fill="none" style="stroke:#181818;stroke-width:1.0;"/><a href="https://www.theforage.com/blog/skills/dcf-valuation" target="_top" title="https://www.theforage.com/blog/skills/dcf-valuation" xlink:actuate="onRequest" xlink:href="https://www.theforage.com/blog/skills/dcf-valuation" xlink:show="new" xlink:title="https://www.theforage.com/blog/skills/dcf-valuation" xlink:type="simple"><text fill="#0000FF" font-family="sans-serif" font-size="14" lengthAdjust="spacing" text-decoration="underline" textLength="152" x="823" y="294.2217">Discounted cash Flow</text></a><path d="M770,280.2266 L780,280.2266 C795,280.2266 795,289.375 810,289.375 L820,289.375 " fill="none" style="stroke:#181818;stroke-width:1.0;"/><path d="M605,280.2266 L615,280.2266 C630,280.2266 630,280.2266 645,280.2266 L655,280.2266 " fill="none" style="stroke:#181818;stroke-width:1.0;"/><text fill="#000000" font-family="sans-serif" font-size="14" lengthAdjust="spacing" textLength="132" x="658" y="321.667">Value Comparison*</text><text fill="#000000" font-family="sans-serif" font-size="14" lengthAdjust="spacing" textLength="110" x="843" y="312.5186">More Subjective</text><path d="M790,316.8203 L800,316.8203 C815,316.8203 815,307.6719 830,307.6719 L840,307.6719 " fill="none" style="stroke:#181818;stroke-width:1.0;"/><text fill="#000000" font-family="sans-serif" font-size="14" lengthAdjust="spacing" textLength="121" x="843" y="330.8154">Market segments</text><path d="M790,316.8203 L800,316.8203 C815,316.8203 815,325.9688 830,325.9688 L840,325.9688 " fill="none" style="stroke:#181818;stroke-width:1.0;"/><path d="M605,280.2266 L615,280.2266 C630,280.2266 630,316.8203 645,316.8203 L655,316.8203 " fill="none" style="stroke:#181818;stroke-width:1.0;"/><path d="M424,265.4492 L434,265.4492 C449,265.4492 449,280.2266 464,280.2266 L474,280.2266 " fill="none" style="stroke:#181818;stroke-width:1.0;"/><rect fill="#F1F1F1" height="36.2969" rx="12.5" ry="12.5" style="stroke:#181818;stroke-width:1.5;" width="185" x="474" y="345.1172"/><text fill="#000000" font-family="sans-serif" font-size="14" lengthAdjust="spacing" textLength="165" x="484" y="368.1123">Pricing Transition Shock</text><text fill="#000000" font-family="sans-serif" font-size="14" lengthAdjust="spacing" textLength="109" x="712" y="358.9639">Counterintuitive</text><path d="M659,363.2656 L669,363.2656 C684,363.2656 684,354.1172 699,354.1172 L709,354.1172 " fill="none" style="stroke:#181818;stroke-width:1.0;"/><text fill="#000000" font-family="sans-serif" font-size="14" lengthAdjust="spacing" textLength="148" x="712" y="377.2607">Shifts Customer base</text><path d="M659,363.2656 L669,363.2656 C684,363.2656 684,372.4141 699,372.4141 L709,372.4141 " fill="none" style="stroke:#181818;stroke-width:1.0;"/><path d="M424,265.4492 L434,265.4492 C449,265.4492 449,363.2656 464,363.2656 L474,363.2656 " fill="none" style="stroke:#181818;stroke-width:1.0;"/><path d="M226,354.1172 L236,354.1172 C251,354.1172 251,265.4492 266,265.4492 L276,265.4492 " fill="none" style="stroke:#181818;stroke-width:1.0;"/><rect fill="#F1F1F1" height="36.2969" rx="12.5" ry="12.5" style="stroke:#181818;stroke-width:1.5;" width="155" x="276" y="447.1563"/><text fill="#000000" font-family="sans-serif" font-size="14" lengthAdjust="spacing" textLength="135" x="286" y="470.1514">Value Based Selling</text><rect fill="#F1F1F1" height="36.2969" rx="12.5" ry="12.5" style="stroke:#181818;stroke-width:1.5;" width="115" x="481" y="419.0078"/><text fill="#000000" font-family="sans-serif" font-size="14" lengthAdjust="spacing" textLength="95" x="491" y="442.0029">Listening First</text><text fill="#000000" font-family="sans-serif" font-size="14" lengthAdjust="spacing" textLength="71" x="649" y="405.4092">Questions</text><path d="M596,437.1563 L606,437.1563 C621,437.1563 621,400.5625 636,400.5625 L646,400.5625 " fill="none" style="stroke:#181818;stroke-width:1.0;"/><text fill="#000000" font-family="sans-serif" font-size="14" lengthAdjust="spacing" textLength="166" x="649" y="423.7061">Understanding Situation</text><path d="M596,437.1563 L606,437.1563 C621,437.1563 621,418.8594 636,418.8594 L646,418.8594 " fill="none" style="stroke:#181818;stroke-width:1.0;"/><text fill="#000000" font-family="sans-serif" font-size="14" lengthAdjust="spacing" textLength="57" x="649" y="442.0029">Problem</text><path d="M596,437.1563 L606,437.1563 C621,437.1563 621,437.1563 636,437.1563 L646,437.1563 " fill="none" style="stroke:#181818;stroke-width:1.0;"/><text fill="#000000" font-family="sans-serif" font-size="14" lengthAdjust="spacing" textLength="81" x="649" y="460.2998">Implications</text><path d="M596,437.1563 L606,437.1563 C621,437.1563 621,455.4531 636,455.4531 L646,455.4531 " fill="none" style="stroke:#181818;stroke-width:1.0;"/><text fill="#000000" font-family="sans-serif" font-size="14" lengthAdjust="spacing" textLength="82" x="649" y="478.5967">Need Payoff</text><path d="M596,437.1563 L606,437.1563 C621,437.1563 621,473.75 636,473.75 L646,473.75 " fill="none" style="stroke:#181818;stroke-width:1.0;"/><path d="M431,465.3047 L441,465.3047 C456,465.3047 456,437.1563 471,437.1563 L481,437.1563 " fill="none" style="stroke:#181818;stroke-width:1.0;"/><rect fill="#F1F1F1" height="36.2969" rx="12.5" ry="12.5" style="stroke:#181818;stroke-width:1.5;" width="189" x="481" y="492.8984"/><text fill="#000000" font-family="sans-serif" font-size="14" lengthAdjust="spacing" textLength="169" x="491" y="515.8936">'Persuastion Resistance'</text><text fill="#000000" font-family="sans-serif" font-size="14" lengthAdjust="spacing" textLength="84" x="723" y="497.5967">Desparation</text><path d="M670,511.0469 L680,511.0469 C695,511.0469 695,492.75 710,492.75 L720,492.75 " fill="none" style="stroke:#181818;stroke-width:1.0;"/><text fill="#000000" font-family="sans-serif" font-size="14" lengthAdjust="spacing" textLength="56" x="723" y="515.8936">Chasing</text><path d="M670,511.0469 L680,511.0469 C695,511.0469 695,511.0469 710,511.0469 L720,511.0469 " fill="none" style="stroke:#181818;stroke-width:1.0;"/><text fill="#000000" font-family="sans-serif" font-size="14" lengthAdjust="spacing" textLength="131" x="723" y="534.1904">Option Fatigue (3x)</text><path d="M670,511.0469 L680,511.0469 C695,511.0469 695,529.3438 710,529.3438 L720,529.3438 " fill="none" style="stroke:#181818;stroke-width:1.0;"/><path d="M431,465.3047 L441,465.3047 C456,465.3047 456,511.0469 471,511.0469 L481,511.0469 " fill="none" style="stroke:#181818;stroke-width:1.0;"/><path d="M226,354.1172 L236,354.1172 C251,354.1172 251,465.3047 266,465.3047 L276,465.3047 " fill="none" style="stroke:#181818;stroke-width:1.0;"/><rect fill="#F1F1F1" height="36.2969" rx="12.5" ry="12.5" style="stroke:#181818;stroke-width:1.5;" width="109" x="276" y="539.3438"/><text fill="#000000" font-family="sans-serif" font-size="14" lengthAdjust="spacing" textLength="89" x="286" y="562.3389">Reciprication</text><text fill="#000000" font-family="sans-serif" font-size="14" lengthAdjust="spacing" textLength="71" x="438" y="553.1904">Free value</text><path d="M385,557.4922 L395,557.4922 C410,557.4922 410,548.3438 425,548.3438 L435,548.3438 " fill="none" style="stroke:#181818;stroke-width:1.0;"/><text fill="#000000" font-family="sans-serif" font-size="14" lengthAdjust="spacing" textLength="78" x="438" y="571.4873">Networking</text><path d="M385,557.4922 L395,557.4922 C410,557.4922 410,566.6406 425,566.6406 L435,566.6406 " fill="none" style="stroke:#181818;stroke-width:1.0;"/><path d="M226,354.1172 L236,354.1172 C251,354.1172 251,557.4922 266,557.4922 L276,557.4922 " fill="none" style="stroke:#181818;stroke-width:1.0;"/><rect fill="#F1F1F1" height="36.2969" rx="12.5" ry="12.5" style="stroke:#181818;stroke-width:1.5;" width="184" x="276" y="595.6406"/><text fill="#000000" font-family="sans-serif" font-size="14" lengthAdjust="spacing" textLength="164" x="286" y="618.6357">Education based selling</text><text fill="#000000" font-family="sans-serif" font-size="14" lengthAdjust="spacing" textLength="115" x="513" y="609.4873">Inform Customer</text><path d="M460,613.7891 L470,613.7891 C485,613.7891 485,604.6406 500,604.6406 L510,604.6406 " fill="none" style="stroke:#181818;stroke-width:1.0;"/><text fill="#000000" font-family="sans-serif" font-size="14" lengthAdjust="spacing" textLength="164" x="513" y="627.7842">Know the Offer, Product</text><path d="M460,613.7891 L470,613.7891 C485,613.7891 485,622.9375 500,622.9375 L510,622.9375 " fill="none" style="stroke:#181818;stroke-width:1.0;"/><path d="M226,354.1172 L236,354.1172 C251,354.1172 251,613.7891 266,613.7891 L276,613.7891 " fill="none" style="stroke:#181818;stroke-width:1.0;"/><rect fill="#F1F1F1" height="36.2969" rx="12.5" ry="12.5" style="stroke:#181818;stroke-width:1.5;" width="89" x="276" y="651.9375"/><text fill="#000000" font-family="sans-serif" font-size="14" lengthAdjust="spacing" textLength="69" x="286" y="674.9326">Exclusivity</text><path d="M226,354.1172 L236,354.1172 C251,354.1172 251,670.0859 266,670.0859 L276,670.0859 " fill="none" style="stroke:#181818;stroke-width:1.0;"/><path d="M67,515.2695 L77,515.2695 C92,515.2695 92,354.1172 107,354.1172 L117,354.1172 " fill="none" style="stroke:#181818;stroke-width:1.0;"/><rect fill="#F1F1F1" height="36.2969" rx="12.5" ry="12.5" style="stroke:#181818;stroke-width:1.5;" width="99" x="117" y="818.0156"/><text fill="#000000" font-family="sans-serif" font-size="14" lengthAdjust="spacing" textLength="79" x="127" y="841.0107">Negotiation</text><text fill="#000000" font-family="sans-serif" font-size="14" lengthAdjust="spacing" textLength="41" x="269" y="712.2295">Setup</text><path d="M216,836.1641 L226,836.1641 C241,836.1641 241,707.3828 256,707.3828 L266,707.3828 " fill="none" style="stroke:#181818;stroke-width:1.0;"/><text fill="#000000" font-family="sans-serif" font-size="14" lengthAdjust="spacing" textLength="64" x="269" y="730.5264">Structure</text><path d="M216,836.1641 L226,836.1641 C241,836.1641 241,725.6797 256,725.6797 L266,725.6797 " fill="none" style="stroke:#181818;stroke-width:1.0;"/><text fill="#000000" font-family="sans-serif" font-size="14" lengthAdjust="spacing" textLength="76" x="269" y="748.8232">Discussion</text><path d="M216,836.1641 L226,836.1641 C241,836.1641 241,743.9766 256,743.9766 L266,743.9766 " fill="none" style="stroke:#181818;stroke-width:1.0;"/><text fill="#000000" font-family="sans-serif" font-size="14" lengthAdjust="spacing" textLength="111" x="269" y="767.1201">'Agency / Buffer'</text><path d="M216,836.1641 L226,836.1641 C241,836.1641 241,762.2734 256,762.2734 L266,762.2734 " fill="none" style="stroke:#181818;stroke-width:1.0;"/><text fill="#000000" font-family="sans-serif" font-size="14" lengthAdjust="spacing" textLength="161" x="269" y="785.417">Next Best Alternative(s)</text><path d="M216,836.1641 L226,836.1641 C241,836.1641 241,780.5703 256,780.5703 L266,780.5703 " fill="none" style="stroke:#181818;stroke-width:1.0;"/><text fill="#000000" font-family="sans-serif" font-size="14" lengthAdjust="spacing" textLength="92" x="269" y="803.7139">Risk Reversal</text><path d="M216,836.1641 L226,836.1641 C241,836.1641 241,798.8672 256,798.8672 L266,798.8672 " fill="none" style="stroke:#181818;stroke-width:1.0;"/><rect fill="#F1F1F1" height="36.2969" rx="12.5" ry="12.5" style="stroke:#181818;stroke-width:1.5;" width="138" x="266" y="818.0156"/><text fill="#000000" font-family="sans-serif" font-size="14" lengthAdjust="spacing" textLength="118" x="276" y="841.0107">'Universal Sliders'</text><text fill="#000000" font-family="sans-serif" font-size="14" lengthAdjust="spacing" textLength="75" x="457" y="822.7139">Resources</text><path d="M404,836.1641 L414,836.1641 C429,836.1641 429,817.8672 444,817.8672 L454,817.8672 " fill="none" style="stroke:#181818;stroke-width:1.0;"/><text fill="#000000" font-family="sans-serif" font-size="14" lengthAdjust="spacing" textLength="34" x="457" y="841.0107">Time</text><path d="M404,836.1641 L414,836.1641 C429,836.1641 429,836.1641 444,836.1641 L454,836.1641 " fill="none" style="stroke:#181818;stroke-width:1.0;"/><text fill="#000000" font-family="sans-serif" font-size="14" lengthAdjust="spacing" textLength="60" x="457" y="859.3076">Flexibility</text><path d="M404,836.1641 L414,836.1641 C429,836.1641 429,854.4609 444,854.4609 L454,854.4609 " fill="none" style="stroke:#181818;stroke-width:1.0;"/><path d="M216,836.1641 L226,836.1641 C241,836.1641 241,836.1641 256,836.1641 L266,836.1641 " fill="none" style="stroke:#181818;stroke-width:1.0;"/><rect fill="#F1F1F1" height="36.2969" rx="12.5" ry="12.5" style="stroke:#181818;stroke-width:1.5;" width="73" x="266" y="901.0547"/><text fill="#000000" font-family="sans-serif" font-size="14" lengthAdjust="spacing" textLength="53" x="276" y="924.0498">Barriers</text><text fill="#000000" font-family="sans-serif" font-size="14" lengthAdjust="spacing" textLength="32" x="392" y="878.3076">Cost</text><path d="M339,919.2031 L349,919.2031 C364,919.2031 364,873.4609 379,873.4609 L389,873.4609 " fill="none" style="stroke:#181818;stroke-width:1.0;"/><text fill="#000000" font-family="sans-serif" font-size="14" lengthAdjust="spacing" textLength="76" x="392" y="896.6045">Won't work</text><path d="M339,919.2031 L349,919.2031 C364,919.2031 364,891.7578 379,891.7578 L389,891.7578 " fill="none" style="stroke:#181818;stroke-width:1.0;"/><text fill="#000000" font-family="sans-serif" font-size="14" lengthAdjust="spacing" textLength="124" x="392" y="914.9014">Won't work for me</text><path d="M339,919.2031 L349,919.2031 C364,919.2031 364,910.0547 379,910.0547 L389,910.0547 " fill="none" style="stroke:#181818;stroke-width:1.0;"/><text fill="#000000" font-family="sans-serif" font-size="14" lengthAdjust="spacing" textLength="63" x="392" y="933.1982">I can wait</text><path d="M339,919.2031 L349,919.2031 C364,919.2031 364,928.3516 379,928.3516 L389,928.3516 " fill="none" style="stroke:#181818;stroke-width:1.0;"/><text fill="#000000" font-family="sans-serif" font-size="14" lengthAdjust="spacing" textLength="62" x="392" y="951.4951">Too hard</text><path d="M339,919.2031 L349,919.2031 C364,919.2031 364,946.6484 379,946.6484 L389,946.6484 " fill="none" style="stroke:#181818;stroke-width:1.0;"/><text fill="#000000" font-family="sans-serif" font-size="14" lengthAdjust="spacing" textLength="169" x="392" y="969.792">Lack of Power / Authority</text><path d="M339,919.2031 L349,919.2031 C364,919.2031 364,964.9453 379,964.9453 L389,964.9453 " fill="none" style="stroke:#181818;stroke-width:1.0;"/><path d="M216,836.1641 L226,836.1641 C241,836.1641 241,919.2031 256,919.2031 L266,919.2031 " fill="none" style="stroke:#181818;stroke-width:1.0;"/><path d="M67,515.2695 L77,515.2695 C92,515.2695 92,836.1641 107,836.1641 L117,836.1641 " fill="none" style="stroke:#181818;stroke-width:1.0;"/><rect fill="#F1F1F1" height="36.2969" rx="12.5" ry="12.5" style="stroke:#181818;stroke-width:1.5;" width="64" x="117" y="974.2422"/><text fill="#000000" font-family="sans-serif" font-size="14" lengthAdjust="spacing" textLength="44" x="127" y="997.2373">Books</text><text fill="#000000" font-family="sans-serif" font-size="14" lengthAdjust="spacing" textLength="202" x="234" y="988.0889">To sell is Human - Daniel Pink</text><path d="M181,992.3906 L191,992.3906 C206,992.3906 206,983.2422 221,983.2422 L231,983.2422 " fill="none" style="stroke:#181818;stroke-width:1.0;"/><text fill="#000000" font-family="sans-serif" font-size="14" lengthAdjust="spacing" textLength="211" x="234" y="1006.3857">Value Based Fees - Alan Weiss</text><path d="M181,992.3906 L191,992.3906 C206,992.3906 206,1001.5391 221,1001.5391 L231,1001.5391 " fill="none" style="stroke:#181818;stroke-width:1.0;"/><path d="M67,515.2695 L77,515.2695 C92,515.2695 92,992.3906 107,992.3906 L117,992.3906 " fill="none" style="stroke:#181818;stroke-width:1.0;"/><!--SRC=[TLJRSXev47sVh-WtR6g1s76bKZp5G73iGC9oSHvIAPVGz0nQDDAKBepv-xGq5vpTshUPlftMwTFzoJfcN25KMh0owSE6IRH9lmzRmvHbt0cjmdymUEl2L_y5Pi9ogIr2gYjbHHfJWgEtnf1pOY6lrnZNU19OjI5JWwbmy4LOfyqvbfxgej0A7epsAerXS2z5heJAuL4vD6XTtSJA21wiEyNHE2QKEzVnwuX8pJVf_jBv9Mk9xg3JsXZxAYNZMA1or4BpEB8lcJbYC1KbCy9grJeU5TS5miOPP4LJXim_VnwSA-ruDAggQiYPv5uoUfpLlXnInkYDQPG9nHGNJ8uKka59JoFumOb9ZuDBtB0ybF2DcbZL0V0S0dxz-XzCTy1C6vPZXDjBdO_iKKXfHodFOl58JvmRSUmm1Sxi0UPILstHbnhZpRFx7TfI6tgst_-3ORXuiTTCMSm3YVzYEof8HDpDGVDZ2pED7HYQdHUNQYyK939dOKeo8vODx9cDlgQl2Vsci44fgNYDj20DOLJ9N9ZB_Fxsf9Tk-cJOgHJ9prGQOZV2rNIqxfNHUub5D-MYb8ApFofyGy9UiRFEiXgwjwAAdaKS4f8LeJp7NfimGqii_W4pFJ3Rjaw_tykOEwUOd9vtzVxrEhvsZLoKfccWsPcvGOIeaQJjnrNQ79joy3drTNmaBQM1N5WAiYLn51snZVMhqXMGSE1xbg7vAx10LLnTxvLBRyL9nFKYj5mxqJL4eqBdo-RJ6Sho1fFkCdXhkyZUVOwAds444nzmUadJ_wk32Os95fsqe5WGmfMzhhrhOO_XQX35JCQ6UZibwb_OI16cUJakj6Q6TnTeAugMfBd4Lx4Nidv5dnHaZA3KzX3fxfxze6Fb833w7mCGTz2LVAIzKL0nEc0jdjPmO2PjVXUC7q5diD8LINX4XuXEZcbud6Xzj4cJ5eS4mi8NNr3D0SoO4YXX9TGnUREFjUxdY9PYxYM5_a1XRV89wMOtTpjPaTtjbWi890KTt0nltztU3c_khhPKOuOStds0cu_ZsxlnpNjuM6uX-A-JguVL0ce68IKH6x7tOSxNoHCxCLZJgXAXOr8hggVPrzO0dzL96At2sYTFpyjBm8UxmOJOsQ2XLk1vcSmmOruwok0wxDyOTjlvu6EoO2htTBB6W2g9Dy6SoRVv3G00]--></g></svg>