<?xml version="1.0" encoding="UTF-8" standalone="no"?><svg xmlns="http://www.w3.org/2000/svg" xmlns:xlink="http://www.w3.org/1999/xlink" contentStyleType="text/css" height="1198px" preserveAspectRatio="none" style="width:755px;height:1198px;background:#FFFFFF;" version="1.1" viewBox="0 0 755 1198" width="755px" zoomAndPan="magnify"><defs/><g><rect fill="#F1F1F1" height="36.2969" rx="12.5" ry="12.5" style="stroke:#181818;stroke-width:1.5;" width="116" x="10" y="580.1563"/><text fill="#000000" font-family="sans-serif" font-size="14" lengthAdjust="spacing" textLength="96" x="20" y="603.1514">Value Delivery</text><rect fill="#F1F1F1" height="36.2969" rx="12.5" ry="12.5" style="stroke:#181818;stroke-width:1.5;" width="111" x="176" y="48.1484"/><text fill="#000000" font-family="sans-serif" font-size="14" lengthAdjust="spacing" textLength="91" x="186" y="71.1436">Value Stream</text><rect fill="#F1F1F1" height="36.2969" rx="12.5" ry="12.5" style="stroke:#181818;stroke-width:1.5;" width="111" x="337" y="20"/><text fill="#000000" font-family="sans-serif" font-size="14" lengthAdjust="spacing" textLength="91" x="347" y="42.9951">Diagramming</text><path d="M287,66.2969 L297,66.2969 C312,66.2969 312,38.1484 327,38.1484 L337,38.1484 " fill="none" style="stroke:#181818;stroke-width:1.0;"/><rect fill="#F1F1F1" height="36.2969" rx="12.5" ry="12.5" style="stroke:#181818;stroke-width:1.5;" width="106" x="337" y="76.2969"/><text fill="#000000" font-family="sans-serif" font-size="14" lengthAdjust="spacing" textLength="86" x="347" y="99.292">Optimisation</text><text fill="#000000" font-family="sans-serif" font-size="14" lengthAdjust="spacing" textLength="46" x="496" y="90.1436">Kaizen</text><path d="M443,94.4453 L453,94.4453 C468,94.4453 468,85.2969 483,85.2969 L493,85.2969 " fill="none" style="stroke:#181818;stroke-width:1.0;"/><text fill="#000000" font-family="sans-serif" font-size="14" lengthAdjust="spacing" textLength="144" x="496" y="108.4404">Amplification to scale</text><path d="M443,94.4453 L453,94.4453 C468,94.4453 468,103.5938 483,103.5938 L493,103.5938 " fill="none" style="stroke:#181818;stroke-width:1.0;"/><path d="M287,66.2969 L297,66.2969 C312,66.2969 312,94.4453 327,94.4453 L337,94.4453 " fill="none" style="stroke:#181818;stroke-width:1.0;"/><path d="M126,598.3047 L136,598.3047 C151,598.3047 151,66.2969 166,66.2969 L176,66.2969 " fill="none" style="stroke:#181818;stroke-width:1.0;"/><rect fill="#F1F1F1" height="36.2969" rx="12.5" ry="12.5" style="stroke:#181818;stroke-width:1.5;" width="99" x="176" y="160.7422"/><text fill="#000000" font-family="sans-serif" font-size="14" lengthAdjust="spacing" textLength="79" x="186" y="183.7373">Distribution</text><rect fill="#F1F1F1" height="36.2969" rx="12.5" ry="12.5" style="stroke:#181818;stroke-width:1.5;" width="114" x="325" y="132.5938"/><text fill="#000000" font-family="sans-serif" font-size="14" lengthAdjust="spacing" textLength="94" x="335" y="155.5889">Direct to user</text><path d="M275,178.8906 L285,178.8906 C300,178.8906 300,150.7422 315,150.7422 L325,150.7422 " fill="none" style="stroke:#181818;stroke-width:1.0;"/><rect fill="#F1F1F1" height="36.2969" rx="12.5" ry="12.5" style="stroke:#181818;stroke-width:1.5;" width="105" x="325" y="188.8906"/><text fill="#000000" font-family="sans-serif" font-size="14" lengthAdjust="spacing" textLength="85" x="335" y="211.8857">Intermediary</text><text fill="#000000" font-family="sans-serif" font-size="14" lengthAdjust="spacing" textLength="127" x="483" y="211.8857">Counter Party Risk</text><path d="M430,207.0391 L440,207.0391 C455,207.0391 455,207.0391 470,207.0391 L480,207.0391 " fill="none" style="stroke:#181818;stroke-width:1.0;"/><path d="M275,178.8906 L285,178.8906 C300,178.8906 300,207.0391 315,207.0391 L325,207.0391 " fill="none" style="stroke:#181818;stroke-width:1.0;"/><path d="M126,598.3047 L136,598.3047 C151,598.3047 151,178.8906 166,178.8906 L176,178.8906 " fill="none" style="stroke:#181818;stroke-width:1.0;"/><rect fill="#F1F1F1" height="36.2969" rx="12.5" ry="12.5" style="stroke:#181818;stroke-width:1.5;" width="144" x="176" y="301.4844"/><text fill="#000000" font-family="sans-serif" font-size="14" lengthAdjust="spacing" textLength="124" x="186" y="324.4795">Expectation effect</text><rect fill="#F1F1F1" height="36.2969" rx="12.5" ry="12.5" style="stroke:#181818;stroke-width:1.5;" width="174" x="370" y="245.1875"/><text fill="#000000" font-family="sans-serif" font-size="14" lengthAdjust="spacing" textLength="154" x="380" y="268.1826">Quality &amp; Performance</text><path d="M320,319.6328 L330,319.6328 C345,319.6328 345,263.3359 360,263.3359 L370,263.3359 " fill="none" style="stroke:#181818;stroke-width:1.0;"/><rect fill="#F1F1F1" height="36.2969" rx="12.5" ry="12.5" style="stroke:#181818;stroke-width:1.5;" width="185" x="370" y="301.4844"/><text fill="#000000" font-family="sans-serif" font-size="14" lengthAdjust="spacing" textLength="165" x="380" y="324.4795">Customer  Expectations</text><path d="M320,319.6328 L330,319.6328 C345,319.6328 345,319.6328 360,319.6328 L370,319.6328 " fill="none" style="stroke:#181818;stroke-width:1.0;"/><rect fill="#F1F1F1" height="36.2969" rx="12.5" ry="12.5" style="stroke:#181818;stroke-width:1.5;" width="103" x="370" y="357.7813"/><text fill="#000000" font-family="sans-serif" font-size="14" lengthAdjust="spacing" textLength="83" x="380" y="380.7764">'Overdeliver'</text><path d="M320,319.6328 L330,319.6328 C345,319.6328 345,375.9297 360,375.9297 L370,375.9297 " fill="none" style="stroke:#181818;stroke-width:1.0;"/><path d="M126,598.3047 L136,598.3047 C151,598.3047 151,319.6328 166,319.6328 L176,319.6328 " fill="none" style="stroke:#181818;stroke-width:1.0;"/><rect fill="#F1F1F1" height="36.2969" rx="12.5" ry="12.5" style="stroke:#181818;stroke-width:1.5;" width="106" x="176" y="413.375"/><text fill="#000000" font-family="sans-serif" font-size="14" lengthAdjust="spacing" textLength="86" x="186" y="436.3701">Predictability</text><text fill="#000000" font-family="sans-serif" font-size="14" lengthAdjust="spacing" textLength="68" x="335" y="418.0732">Uniformity</text><path d="M282,431.5234 L292,431.5234 C307,431.5234 307,413.2266 322,413.2266 L332,413.2266 " fill="none" style="stroke:#181818;stroke-width:1.0;"/><text fill="#000000" font-family="sans-serif" font-size="14" lengthAdjust="spacing" textLength="85" x="335" y="436.3701">Consistency</text><path d="M282,431.5234 L292,431.5234 C307,431.5234 307,431.5234 322,431.5234 L332,431.5234 " fill="none" style="stroke:#181818;stroke-width:1.0;"/><text fill="#000000" font-family="sans-serif" font-size="14" lengthAdjust="spacing" textLength="63" x="335" y="454.667">Reliability</text><path d="M282,431.5234 L292,431.5234 C307,431.5234 307,449.8203 322,449.8203 L332,449.8203 " fill="none" style="stroke:#181818;stroke-width:1.0;"/><path d="M126,598.3047 L136,598.3047 C151,598.3047 151,431.5234 166,431.5234 L176,431.5234 " fill="none" style="stroke:#181818;stroke-width:1.0;"/><rect fill="#F1F1F1" height="36.2969" rx="12.5" ry="12.5" style="stroke:#181818;stroke-width:1.5;" width="66" x="176" y="571.0078"/><text fill="#000000" font-family="sans-serif" font-size="14" lengthAdjust="spacing" textLength="46" x="186" y="594.0029">Quality</text><rect fill="#F1F1F1" height="36.2969" rx="12.5" ry="12.5" style="stroke:#181818;stroke-width:1.5;" width="91" x="292" y="469.6719"/><text fill="#000000" font-family="sans-serif" font-size="14" lengthAdjust="spacing" textLength="71" x="302" y="492.667">Subjective</text><path d="M242,589.1563 L252,589.1563 C267,589.1563 267,487.8203 282,487.8203 L292,487.8203 " fill="none" style="stroke:#181818;stroke-width:1.0;"/><rect fill="#F1F1F1" height="36.2969" rx="12.5" ry="12.5" style="stroke:#181818;stroke-width:1.5;" width="119" x="292" y="525.9688"/><text fill="#000000" font-family="sans-serif" font-size="14" lengthAdjust="spacing" textLength="99" x="302" y="548.9639">Quality Signals</text><path d="M242,589.1563 L252,589.1563 C267,589.1563 267,544.1172 282,544.1172 L292,544.1172 " fill="none" style="stroke:#181818;stroke-width:1.0;"/><rect fill="#F1F1F1" height="36.2969" rx="12.5" ry="12.5" style="stroke:#181818;stroke-width:1.5;" width="71" x="292" y="627.3047"/><text fill="#000000" font-family="sans-serif" font-size="14" lengthAdjust="spacing" textLength="51" x="302" y="650.2998">Factors</text><text fill="#000000" font-family="sans-serif" font-size="14" lengthAdjust="spacing" textLength="88" x="416" y="586.2607">Performance</text><path d="M363,645.4531 L373,645.4531 C388,645.4531 388,581.4141 403,581.4141 L413,581.4141 " fill="none" style="stroke:#181818;stroke-width:1.0;"/><text fill="#000000" font-family="sans-serif" font-size="14" lengthAdjust="spacing" textLength="61" x="416" y="604.5576">Features</text><path d="M363,645.4531 L373,645.4531 C388,645.4531 388,599.7109 403,599.7109 L413,599.7109 " fill="none" style="stroke:#181818;stroke-width:1.0;"/><text fill="#000000" font-family="sans-serif" font-size="14" lengthAdjust="spacing" textLength="63" x="416" y="622.8545">Reliability</text><path d="M363,645.4531 L373,645.4531 C388,645.4531 388,618.0078 403,618.0078 L413,618.0078 " fill="none" style="stroke:#181818;stroke-width:1.0;"/><text fill="#000000" font-family="sans-serif" font-size="14" lengthAdjust="spacing" textLength="93" x="416" y="641.1514">Conformance</text><path d="M363,645.4531 L373,645.4531 C388,645.4531 388,636.3047 403,636.3047 L413,636.3047 " fill="none" style="stroke:#181818;stroke-width:1.0;"/><text fill="#000000" font-family="sans-serif" font-size="14" lengthAdjust="spacing" textLength="63" x="416" y="659.4482">Durability</text><path d="M363,645.4531 L373,645.4531 C388,645.4531 388,654.6016 403,654.6016 L413,654.6016 " fill="none" style="stroke:#181818;stroke-width:1.0;"/><text fill="#000000" font-family="sans-serif" font-size="14" lengthAdjust="spacing" textLength="88" x="416" y="677.7451">Serviceability</text><path d="M363,645.4531 L373,645.4531 C388,645.4531 388,672.8984 403,672.8984 L413,672.8984 " fill="none" style="stroke:#181818;stroke-width:1.0;"/><text fill="#000000" font-family="sans-serif" font-size="14" lengthAdjust="spacing" textLength="64" x="416" y="696.042">Asthetics</text><path d="M363,645.4531 L373,645.4531 C388,645.4531 388,691.1953 403,691.1953 L413,691.1953 " fill="none" style="stroke:#181818;stroke-width:1.0;"/><text fill="#000000" font-family="sans-serif" font-size="14" lengthAdjust="spacing" textLength="75" x="416" y="714.3389">Perception</text><path d="M363,645.4531 L373,645.4531 C388,645.4531 388,709.4922 403,709.4922 L413,709.4922 " fill="none" style="stroke:#181818;stroke-width:1.0;"/><path d="M242,589.1563 L252,589.1563 C267,589.1563 267,645.4531 282,645.4531 L292,645.4531 " fill="none" style="stroke:#181818;stroke-width:1.0;"/><path d="M126,598.3047 L136,598.3047 C151,598.3047 151,589.1563 166,589.1563 L176,589.1563 " fill="none" style="stroke:#181818;stroke-width:1.0;"/><rect fill="#F1F1F1" height="36.2969" rx="12.5" ry="12.5" style="stroke:#181818;stroke-width:1.5;" width="102" x="176" y="728.6406"/><text fill="#000000" font-family="sans-serif" font-size="14" lengthAdjust="spacing" textLength="82" x="186" y="751.6357">Throughput</text><text fill="#000000" font-family="sans-serif" font-size="14" lengthAdjust="spacing" textLength="35" x="331" y="742.4873">Units</text><text fill="#000000" font-family="sans-serif" font-size="14" lengthAdjust="spacing" textLength="91" x="419" y="733.3389">Cash, $ Profit</text><path d="M366,737.6406 L376,737.6406 C391,737.6406 391,728.4922 406,728.4922 L416,728.4922 " fill="none" style="stroke:#181818;stroke-width:1.0;"/><text fill="#000000" font-family="sans-serif" font-size="14" lengthAdjust="spacing" textLength="161" x="419" y="751.6357">Production Throughput</text><path d="M366,737.6406 L376,737.6406 C391,737.6406 391,746.7891 406,746.7891 L416,746.7891 " fill="none" style="stroke:#181818;stroke-width:1.0;"/><path d="M278,746.7891 L288,746.7891 C303,746.7891 303,737.6406 318,737.6406 L328,737.6406 " fill="none" style="stroke:#181818;stroke-width:1.0;"/><text fill="#000000" font-family="sans-serif" font-size="14" lengthAdjust="spacing" textLength="34" x="331" y="769.9326">Time</text><text fill="#000000" font-family="sans-serif" font-size="14" lengthAdjust="spacing" textLength="150" x="418" y="769.9326">TT Satisfied customer</text><path d="M365,765.0859 L375,765.0859 C390,765.0859 390,765.0859 405,765.0859 L415,765.0859 " fill="none" style="stroke:#181818;stroke-width:1.0;"/><path d="M278,746.7891 L288,746.7891 C303,746.7891 303,765.0859 318,765.0859 L328,765.0859 " fill="none" style="stroke:#181818;stroke-width:1.0;"/><path d="M126,598.3047 L136,598.3047 C151,598.3047 151,746.7891 166,746.7891 L176,746.7891 " fill="none" style="stroke:#181818;stroke-width:1.0;"/><rect fill="#F1F1F1" height="36.2969" rx="12.5" ry="12.5" style="stroke:#181818;stroke-width:1.5;" width="73" x="176" y="813.0859"/><text fill="#000000" font-family="sans-serif" font-size="14" lengthAdjust="spacing" textLength="49" x="186" y="836.0811">Scaling</text><rect fill="#F1F1F1" height="36.2969" rx="12.5" ry="12.5" style="stroke:#181818;stroke-width:1.5;" width="97" x="299" y="784.9375"/><text fill="#000000" font-family="sans-serif" font-size="14" lengthAdjust="spacing" textLength="77" x="309" y="807.9326">Duplication</text><text fill="#000000" font-family="sans-serif" font-size="14" lengthAdjust="spacing" textLength="93" x="449" y="789.6357">Product Form</text><path d="M396,803.0859 L406,803.0859 C421,803.0859 421,784.7891 436,784.7891 L446,784.7891 " fill="none" style="stroke:#181818;stroke-width:1.0;"/><text fill="#000000" font-family="sans-serif" font-size="14" lengthAdjust="spacing" textLength="54" x="449" y="807.9326">Internet</text><path d="M396,803.0859 L406,803.0859 C421,803.0859 421,803.0859 436,803.0859 L446,803.0859 " fill="none" style="stroke:#181818;stroke-width:1.0;"/><text fill="#000000" font-family="sans-serif" font-size="14" lengthAdjust="spacing" textLength="124" x="449" y="826.2295">Automation, Scale</text><path d="M396,803.0859 L406,803.0859 C421,803.0859 421,821.3828 436,821.3828 L446,821.3828 " fill="none" style="stroke:#181818;stroke-width:1.0;"/><path d="M249,831.2344 L259,831.2344 C274,831.2344 274,803.0859 289,803.0859 L299,803.0859 " fill="none" style="stroke:#181818;stroke-width:1.0;"/><rect fill="#F1F1F1" height="36.2969" rx="12.5" ry="12.5" style="stroke:#181818;stroke-width:1.5;" width="117" x="299" y="841.2344"/><text fill="#000000" font-family="sans-serif" font-size="14" lengthAdjust="spacing" textLength="97" x="309" y="864.2295">Store Formats</text><text fill="#000000" font-family="sans-serif" font-size="14" lengthAdjust="spacing" textLength="136" x="469" y="855.0811">Distribution centres</text><path d="M416,859.3828 L426,859.3828 C441,859.3828 441,850.2344 456,850.2344 L466,850.2344 " fill="none" style="stroke:#181818;stroke-width:1.0;"/><text fill="#000000" font-family="sans-serif" font-size="14" lengthAdjust="spacing" textLength="79" x="469" y="873.3779">Franchising</text><path d="M416,859.3828 L426,859.3828 C441,859.3828 441,868.5313 456,868.5313 L466,868.5313 " fill="none" style="stroke:#181818;stroke-width:1.0;"/><path d="M249,831.2344 L259,831.2344 C274,831.2344 274,859.3828 289,859.3828 L299,859.3828 " fill="none" style="stroke:#181818;stroke-width:1.0;"/><path d="M126,598.3047 L136,598.3047 C151,598.3047 151,831.2344 166,831.2344 L176,831.2344 " fill="none" style="stroke:#181818;stroke-width:1.0;"/><rect fill="#F1F1F1" height="36.2969" rx="12.5" ry="12.5" style="stroke:#181818;stroke-width:1.5;" width="104" x="176" y="934.4766"/><text fill="#000000" font-family="sans-serif" font-size="14" lengthAdjust="spacing" textLength="84" x="186" y="957.4717">Competition</text><rect fill="#F1F1F1" height="36.2969" rx="12.5" ry="12.5" style="stroke:#181818;stroke-width:1.5;" width="116" x="330" y="897.5313"/><text fill="#000000" font-family="sans-serif" font-size="14" lengthAdjust="spacing" textLength="96" x="340" y="920.5264">Differentiation</text><text fill="#000000" font-family="sans-serif" font-size="14" lengthAdjust="spacing" textLength="91" x="499" y="920.5264">Value Stream</text><path d="M446,915.6797 L456,915.6797 C471,915.6797 471,915.6797 486,915.6797 L496,915.6797 " fill="none" style="stroke:#181818;stroke-width:1.0;"/><path d="M280,952.625 L290,952.625 C305,952.625 305,915.6797 320,915.6797 L330,915.6797 " fill="none" style="stroke:#181818;stroke-width:1.0;"/><rect fill="#F1F1F1" height="36.2969" rx="12.5" ry="12.5" style="stroke:#181818;stroke-width:1.5;" width="132" x="330" y="953.8281"/><text fill="#000000" font-family="sans-serif" font-size="14" lengthAdjust="spacing" textLength="112" x="340" y="976.8232">Force Multipliers</text><text fill="#000000" font-family="sans-serif" font-size="14" lengthAdjust="spacing" textLength="96" x="515" y="958.5264">Systemisation</text><text fill="#000000" font-family="sans-serif" font-size="14" lengthAdjust="spacing" textLength="56" x="664" y="940.2295">Process</text><path d="M611,953.6797 L621,953.6797 C636,953.6797 636,935.3828 651,935.3828 L661,935.3828 " fill="none" style="stroke:#181818;stroke-width:1.0;"/><text fill="#000000" font-family="sans-serif" font-size="14" lengthAdjust="spacing" textLength="73" x="664" y="958.5264">Algorithms</text><path d="M611,953.6797 L621,953.6797 C636,953.6797 636,953.6797 651,953.6797 L661,953.6797 " fill="none" style="stroke:#181818;stroke-width:1.0;"/><text fill="#000000" font-family="sans-serif" font-size="14" lengthAdjust="spacing" textLength="79" x="664" y="976.8232">Automation</text><path d="M611,953.6797 L621,953.6797 C636,953.6797 636,971.9766 651,971.9766 L661,971.9766 " fill="none" style="stroke:#181818;stroke-width:1.0;"/><path d="M462,971.9766 L472,971.9766 C487,971.9766 487,953.6797 502,953.6797 L512,953.6797 " fill="none" style="stroke:#181818;stroke-width:1.0;"/><text fill="#000000" font-family="sans-serif" font-size="14" lengthAdjust="spacing" textLength="110" x="515" y="995.1201">Plant / Factories</text><path d="M462,971.9766 L472,971.9766 C487,971.9766 487,990.2734 502,990.2734 L512,990.2734 " fill="none" style="stroke:#181818;stroke-width:1.0;"/><text fill="#000000" font-family="sans-serif" font-size="14" lengthAdjust="spacing" textLength="46" x="515" y="1013.417">Capital</text><path d="M462,971.9766 L472,971.9766 C487,971.9766 487,1008.5703 502,1008.5703 L512,1008.5703 " fill="none" style="stroke:#181818;stroke-width:1.0;"/><path d="M280,952.625 L290,952.625 C305,952.625 305,971.9766 320,971.9766 L330,971.9766 " fill="none" style="stroke:#181818;stroke-width:1.0;"/><path d="M126,598.3047 L136,598.3047 C151,598.3047 151,952.625 166,952.625 L176,952.625 " fill="none" style="stroke:#181818;stroke-width:1.0;"/><rect fill="#F1F1F1" height="36.2969" rx="12.5" ry="12.5" style="stroke:#181818;stroke-width:1.5;" width="63" x="176" y="1055.8672"/><text fill="#000000" font-family="sans-serif" font-size="14" lengthAdjust="spacing" textLength="43" x="186" y="1078.8623">Triage</text><rect fill="#F1F1F1" height="36.2969" rx="12.5" ry="12.5" style="stroke:#181818;stroke-width:1.5;" width="79" x="289" y="1027.7188"/><text fill="#000000" font-family="sans-serif" font-size="14" lengthAdjust="spacing" textLength="59" x="299" y="1050.7139">Priorities</text><path d="M239,1074.0156 L249,1074.0156 C264,1074.0156 264,1045.8672 279,1045.8672 L289,1045.8672 " fill="none" style="stroke:#181818;stroke-width:1.0;"/><rect fill="#F1F1F1" height="36.2969" rx="12.5" ry="12.5" style="stroke:#181818;stroke-width:1.5;" width="185" x="289" y="1084.0156"/><text fill="#000000" font-family="sans-serif" font-size="14" lengthAdjust="spacing" textLength="165" x="299" y="1107.0107">Customer Lifetime value</text><path d="M239,1074.0156 L249,1074.0156 C264,1074.0156 264,1102.1641 279,1102.1641 L289,1102.1641 " fill="none" style="stroke:#181818;stroke-width:1.0;"/><path d="M126,598.3047 L136,598.3047 C151,598.3047 151,1074.0156 166,1074.0156 L176,1074.0156 " fill="none" style="stroke:#181818;stroke-width:1.0;"/><rect fill="#F1F1F1" height="36.2969" rx="12.5" ry="12.5" style="stroke:#181818;stroke-width:1.5;" width="64" x="176" y="1140.3125"/><text fill="#000000" font-family="sans-serif" font-size="14" lengthAdjust="spacing" textLength="44" x="186" y="1163.3076">Books</text><text fill="#000000" font-family="sans-serif" font-size="14" lengthAdjust="spacing" textLength="186" x="293" y="1163.3076">Garvins 8 Factors of Quality</text><path d="M240,1158.4609 L250,1158.4609 C265,1158.4609 265,1158.4609 280,1158.4609 L290,1158.4609 " fill="none" style="stroke:#181818;stroke-width:1.0;"/><path d="M126,598.3047 L136,598.3047 C151,598.3047 151,1158.4609 166,1158.4609 L176,1158.4609 " fill="none" style="stroke:#181818;stroke-width:1.0;"/><!--SRC=[PLHDKzim4BtxL-oXKo03bAGPXic9a12ca0mf3bmxGbudMsp9euzCqr_VbMmd3hrPwtsxRzy-wTOwOLn9AYj5bVJWJHGUOOe5RT7iabuRIPr1KVAv1rCIQoDAngpZ-RboL98LZhGAWTulU1Bq5zl3kAmAoad6170Qh1G59h6ITORUVOlaW47fGewtQ6BeXt9eIin8H3gXu4Jx48GbCz_12zcFKEp-JyNOkWdcENz7_4yl2kAqhx14asjJ2YKn_fbuwtJ9TRfG6t-TFFFqMIt2IIY-DCo0Kzuf54iYZLT5eTx-F64q3uHADe4NBd10j4nYWzI__-QMNF-8P4fh9OgQmqn8furjPlv4dYCp5CuRR1EEcpLyFa6ctXodf6Ys9F4uEBPkWuvafxN4gjaHh3P6-_McycwlWcip9y9kpk4BgwLpSYtSwCpBk9RFs1MLBRNL2b9UWCq9Cv3DPaA_bCt2JeFQ7vwj9BjEQwh3Z2TjGj4n2jl-Oy-r8kGy5giLJrbRZ2Ynfz-r8qXKxg3kpB2C6xArvrdQicA9Ehvbmnb6K9VRVpU7sqc4XIySyHouNswwOziSNQ5wCedMjiTniTQ6tAOyHFQ3jLeKGZdurZY7yB2MYfmeulOCNzvQWQMXKB19Ezo6EUKyMecm3VG3w4xh3rjlx46mOPI5czQUeFEziM-HNv7c9KaYcTV57FWAsI1e_t9mDHXSzeUdg_Z2IBYwXlxDQ30SzR_3ms85uVzPSlgmd8FLFaYLTJPobZoAhO0NlllCRiJF3gh7wLCRW7kr9QDLoLj87jyMXuJhuSKTkUXr7kzjaKmn5xm3HaYTyKP7yBgQNTmaSw7MdkKP0RzTyP4nE_wN_WC0]--></g></svg>