<?xml version="1.0" encoding="UTF-8" standalone="no"?><svg xmlns="http://www.w3.org/2000/svg" xmlns:xlink="http://www.w3.org/1999/xlink" contentStyleType="text/css" height="910px" preserveAspectRatio="none" style="width:798px;height:910px;background:#FFFFFF;" version="1.1" viewBox="0 0 798 910" width="798px" zoomAndPan="magnify"><defs/><g><rect fill="#F1F1F1" height="36.2969" rx="12.5" ry="12.5" style="stroke:#181818;stroke-width:1.5;" width="88" x="10" y="435.8945"/><text fill="#000000" font-family="sans-serif" font-size="14" lengthAdjust="spacing" textLength="68" x="20" y="458.8896">Marketing</text><rect fill="#F1F1F1" height="36.2969" rx="12.5" ry="12.5" style="stroke:#181818;stroke-width:1.5;" width="83" x="148" y="48.1484"/><text fill="#000000" font-family="sans-serif" font-size="14" lengthAdjust="spacing" textLength="63" x="158" y="71.1436">Attention</text><rect fill="#F1F1F1" height="36.2969" rx="12.5" ry="12.5" style="stroke:#181818;stroke-width:1.5;" width="74" x="281" y="20"/><text fill="#000000" font-family="sans-serif" font-size="14" lengthAdjust="spacing" textLength="54" x="291" y="42.9951">Filtering</text><path d="M231,66.2969 L241,66.2969 C256,66.2969 256,38.1484 271,38.1484 L281,38.1484 " fill="none" style="stroke:#181818;stroke-width:1.0;"/><rect fill="#F1F1F1" height="36.2969" rx="12.5" ry="12.5" style="stroke:#181818;stroke-width:1.5;" width="95" x="281" y="76.2969"/><text fill="#000000" font-family="sans-serif" font-size="14" lengthAdjust="spacing" textLength="75" x="291" y="99.292">Receptivity</text><text fill="#000000" font-family="sans-serif" font-size="14" lengthAdjust="spacing" textLength="35" x="429" y="80.9951">What</text><path d="M376,94.4453 L386,94.4453 C401,94.4453 401,76.1484 416,76.1484 L426,76.1484 " fill="none" style="stroke:#181818;stroke-width:1.0;"/><text fill="#000000" font-family="sans-serif" font-size="14" lengthAdjust="spacing" textLength="40" x="429" y="99.292">When</text><path d="M376,94.4453 L386,94.4453 C401,94.4453 401,94.4453 416,94.4453 L426,94.4453 " fill="none" style="stroke:#181818;stroke-width:1.0;"/><text fill="#000000" font-family="sans-serif" font-size="14" lengthAdjust="spacing" textLength="55" x="429" y="117.5889">Tailored</text><path d="M376,94.4453 L386,94.4453 C401,94.4453 401,112.7422 416,112.7422 L426,112.7422 " fill="none" style="stroke:#181818;stroke-width:1.0;"/><path d="M231,66.2969 L241,66.2969 C256,66.2969 256,94.4453 271,94.4453 L281,94.4453 " fill="none" style="stroke:#181818;stroke-width:1.0;"/><path d="M98,454.043 L108,454.043 C123,454.043 123,66.2969 138,66.2969 L148,66.2969 " fill="none" style="stroke:#181818;stroke-width:1.0;"/><rect fill="#F1F1F1" height="36.2969" rx="12.5" ry="12.5" style="stroke:#181818;stroke-width:1.5;" width="155" x="148" y="245.1875"/><text fill="#000000" font-family="sans-serif" font-size="14" lengthAdjust="spacing" textLength="135" x="158" y="268.1826">Probable Purchaser</text><rect fill="#F1F1F1" height="36.2969" rx="12.5" ry="12.5" style="stroke:#181818;stroke-width:1.5;" width="102" x="353" y="132.5938"/><text fill="#000000" font-family="sans-serif" font-size="14" lengthAdjust="spacing" textLength="82" x="363" y="155.5889">'Awareness'</text><text fill="#000000" font-family="sans-serif" font-size="14" lengthAdjust="spacing" textLength="60" x="508" y="137.292">Unaware</text><path d="M455,150.7422 L465,150.7422 C480,150.7422 480,132.4453 495,132.4453 L505,132.4453 " fill="none" style="stroke:#181818;stroke-width:1.0;"/><text fill="#000000" font-family="sans-serif" font-size="14" lengthAdjust="spacing" textLength="8" x="508" y="155.5889">..</text><path d="M455,150.7422 L465,150.7422 C480,150.7422 480,150.7422 495,150.7422 L505,150.7422 " fill="none" style="stroke:#181818;stroke-width:1.0;"/><text fill="#000000" font-family="sans-serif" font-size="14" lengthAdjust="spacing" textLength="23" x="508" y="173.8857">Full</text><path d="M455,150.7422 L465,150.7422 C480,150.7422 480,169.0391 495,169.0391 L505,169.0391 " fill="none" style="stroke:#181818;stroke-width:1.0;"/><path d="M303,263.3359 L313,263.3359 C328,263.3359 328,150.7422 343,150.7422 L353,150.7422 " fill="none" style="stroke:#181818;stroke-width:1.0;"/><rect fill="#F1F1F1" height="36.2969" rx="12.5" ry="12.5" style="stroke:#181818;stroke-width:1.5;" width="79" x="353" y="188.8906"/><text fill="#000000" font-family="sans-serif" font-size="14" lengthAdjust="spacing" textLength="59" x="363" y="211.8857">Curiosity</text><text fill="#000000" font-family="sans-serif" font-size="14" lengthAdjust="spacing" textLength="83" x="485" y="211.8857">Controversy</text><path d="M432,207.0391 L442,207.0391 C457,207.0391 457,207.0391 472,207.0391 L482,207.0391 " fill="none" style="stroke:#181818;stroke-width:1.0;"/><path d="M303,263.3359 L313,263.3359 C328,263.3359 328,207.0391 343,207.0391 L353,207.0391 " fill="none" style="stroke:#181818;stroke-width:1.0;"/><rect fill="#F1F1F1" height="36.2969" rx="12.5" ry="12.5" style="stroke:#181818;stroke-width:1.5;" width="148" x="353" y="245.1875"/><text fill="#000000" font-family="sans-serif" font-size="14" lengthAdjust="spacing" textLength="128" x="363" y="268.1826">Desired end result</text><path d="M303,263.3359 L313,263.3359 C328,263.3359 328,263.3359 343,263.3359 L353,263.3359 " fill="none" style="stroke:#181818;stroke-width:1.0;"/><rect fill="#F1F1F1" height="36.2969" rx="12.5" ry="12.5" style="stroke:#181818;stroke-width:1.5;" width="123" x="353" y="301.4844"/><text fill="#000000" font-family="sans-serif" font-size="14" lengthAdjust="spacing" textLength="103" x="363" y="324.4795">Demonstration</text><text fill="#000000" font-family="sans-serif" font-size="14" lengthAdjust="spacing" textLength="104" x="529" y="324.4795">e.g. Infomercial</text><path d="M476,319.6328 L486,319.6328 C501,319.6328 501,319.6328 516,319.6328 L526,319.6328 " fill="none" style="stroke:#181818;stroke-width:1.0;"/><path d="M303,263.3359 L313,263.3359 C328,263.3359 328,319.6328 343,319.6328 L353,319.6328 " fill="none" style="stroke:#181818;stroke-width:1.0;"/><rect fill="#F1F1F1" height="36.2969" rx="12.5" ry="12.5" style="stroke:#181818;stroke-width:1.5;" width="103" x="353" y="357.7813"/><text fill="#000000" font-family="sans-serif" font-size="14" lengthAdjust="spacing" textLength="83" x="363" y="380.7764">Qualification</text><text fill="#000000" font-family="sans-serif" font-size="14" lengthAdjust="spacing" textLength="106" x="509" y="380.7764">Filter unwanted</text><path d="M456,375.9297 L466,375.9297 C481,375.9297 481,375.9297 496,375.9297 L506,375.9297 " fill="none" style="stroke:#181818;stroke-width:1.0;"/><path d="M303,263.3359 L313,263.3359 C328,263.3359 328,375.9297 343,375.9297 L353,375.9297 " fill="none" style="stroke:#181818;stroke-width:1.0;"/><path d="M98,454.043 L108,454.043 C123,454.043 123,263.3359 138,263.3359 L148,263.3359 " fill="none" style="stroke:#181818;stroke-width:1.0;"/><rect fill="#F1F1F1" height="36.2969" rx="12.5" ry="12.5" style="stroke:#181818;stroke-width:1.5;" width="190" x="148" y="414.0781"/><text fill="#000000" font-family="sans-serif" font-size="14" lengthAdjust="spacing" textLength="170" x="158" y="437.0732">Market Entry / Exit points</text><rect fill="#F1F1F1" height="36.2969" rx="12.5" ry="12.5" style="stroke:#181818;stroke-width:1.5;" width="94" x="388" y="414.0781"/><text fill="#000000" font-family="sans-serif" font-size="14" lengthAdjust="spacing" textLength="74" x="398" y="437.0732">Life Events</text><text fill="#000000" font-family="sans-serif" font-size="14" lengthAdjust="spacing" textLength="68" x="535" y="427.9248">New Baby</text><path d="M482,432.2266 L492,432.2266 C507,432.2266 507,423.0781 522,423.0781 L532,423.0781 " fill="none" style="stroke:#181818;stroke-width:1.0;"/><text fill="#000000" font-family="sans-serif" font-size="14" lengthAdjust="spacing" textLength="55" x="535" y="446.2217">New car</text><path d="M482,432.2266 L492,432.2266 C507,432.2266 507,441.375 522,441.375 L532,441.375 " fill="none" style="stroke:#181818;stroke-width:1.0;"/><path d="M338,432.2266 L348,432.2266 C363,432.2266 363,432.2266 378,432.2266 L388,432.2266 " fill="none" style="stroke:#181818;stroke-width:1.0;"/><path d="M98,454.043 L108,454.043 C123,454.043 123,432.2266 138,432.2266 L148,432.2266 " fill="none" style="stroke:#181818;stroke-width:1.0;"/><rect fill="#F1F1F1" height="36.2969" rx="12.5" ry="12.5" style="stroke:#181818;stroke-width:1.5;" width="157" x="148" y="576.6367"/><text fill="#000000" font-family="sans-serif" font-size="14" lengthAdjust="spacing" textLength="137" x="158" y="599.6318">Addressable Market</text><rect fill="#F1F1F1" height="36.2969" rx="12.5" ry="12.5" style="stroke:#181818;stroke-width:1.5;" width="124" x="355" y="470.375"/><text fill="#000000" font-family="sans-serif" font-size="14" lengthAdjust="spacing" textLength="104" x="365" y="493.3701">Ease of access</text><path d="M305,594.7852 L315,594.7852 C330,594.7852 330,488.5234 345,488.5234 L355,488.5234 " fill="none" style="stroke:#181818;stroke-width:1.0;"/><rect fill="#F1F1F1" height="36.2969" rx="12.5" ry="12.5" style="stroke:#181818;stroke-width:1.5;" width="85" x="355" y="526.6719"/><text fill="#000000" font-family="sans-serif" font-size="14" lengthAdjust="spacing" textLength="65" x="365" y="549.667">Channels</text><path d="M305,594.7852 L315,594.7852 C330,594.7852 330,544.8203 345,544.8203 L355,544.8203 " fill="none" style="stroke:#181818;stroke-width:1.0;"/><rect fill="#F1F1F1" height="36.2969" rx="12.5" ry="12.5" style="stroke:#181818;stroke-width:1.5;" width="137" x="355" y="582.9688"/><text fill="#000000" font-family="sans-serif" font-size="14" lengthAdjust="spacing" textLength="117" x="365" y="605.9639">Provoking Desire</text><text fill="#000000" font-family="sans-serif" font-size="14" lengthAdjust="spacing" textLength="96" x="545" y="496.1826">Human Drives</text><text fill="#000000" font-family="sans-serif" font-size="14" lengthAdjust="spacing" textLength="88" x="698" y="487.0342">Social Status</text><path d="M645,491.3359 L655,491.3359 C670,491.3359 670,482.1875 685,482.1875 L695,482.1875 " fill="none" style="stroke:#181818;stroke-width:1.0;"/><text fill="#000000" font-family="sans-serif" font-size="14" lengthAdjust="spacing" textLength="30" x="698" y="505.3311">ERG</text><path d="M645,491.3359 L655,491.3359 C670,491.3359 670,500.4844 685,500.4844 L695,500.4844 " fill="none" style="stroke:#181818;stroke-width:1.0;"/><path d="M492,601.1172 L502,601.1172 C517,601.1172 517,491.3359 532,491.3359 L542,491.3359 " fill="none" style="stroke:#181818;stroke-width:1.0;"/><text fill="#000000" font-family="sans-serif" font-size="14" lengthAdjust="spacing" textLength="50" x="545" y="560.2217">'Driven'</text><text fill="#000000" font-family="sans-serif" font-size="14" lengthAdjust="spacing" textLength="52" x="648" y="523.6279">Acquire</text><path d="M595,555.375 L605,555.375 C620,555.375 620,518.7813 635,518.7813 L645,518.7813 " fill="none" style="stroke:#181818;stroke-width:1.0;"/><text fill="#000000" font-family="sans-serif" font-size="14" lengthAdjust="spacing" textLength="37" x="648" y="541.9248">Bond</text><path d="M595,555.375 L605,555.375 C620,555.375 620,537.0781 635,537.0781 L645,537.0781 " fill="none" style="stroke:#181818;stroke-width:1.0;"/><text fill="#000000" font-family="sans-serif" font-size="14" lengthAdjust="spacing" textLength="38" x="648" y="560.2217">Learn</text><path d="M595,555.375 L605,555.375 C620,555.375 620,555.375 635,555.375 L645,555.375 " fill="none" style="stroke:#181818;stroke-width:1.0;"/><text fill="#000000" font-family="sans-serif" font-size="14" lengthAdjust="spacing" textLength="51" x="648" y="578.5186">Defend</text><path d="M595,555.375 L605,555.375 C620,555.375 620,573.6719 635,573.6719 L645,573.6719 " fill="none" style="stroke:#181818;stroke-width:1.0;"/><text fill="#000000" font-family="sans-serif" font-size="14" lengthAdjust="spacing" textLength="29" x="648" y="596.8154">Feel</text><path d="M595,555.375 L605,555.375 C620,555.375 620,591.9688 635,591.9688 L645,591.9688 " fill="none" style="stroke:#181818;stroke-width:1.0;"/><path d="M492,601.1172 L502,601.1172 C517,601.1172 517,555.375 532,555.375 L542,555.375 " fill="none" style="stroke:#181818;stroke-width:1.0;"/><text fill="#000000" font-family="sans-serif" font-size="14" lengthAdjust="spacing" textLength="55" x="545" y="578.5186">Framing</text><path d="M492,601.1172 L502,601.1172 C517,601.1172 517,573.6719 532,573.6719 L542,573.6719 " fill="none" style="stroke:#181818;stroke-width:1.0;"/><text fill="#000000" font-family="sans-serif" font-size="14" lengthAdjust="spacing" textLength="77" x="545" y="615.1123">'Free' value</text><path d="M492,601.1172 L502,601.1172 C517,601.1172 517,610.2656 532,610.2656 L542,610.2656 " fill="none" style="stroke:#181818;stroke-width:1.0;"/><text fill="#000000" font-family="sans-serif" font-size="14" lengthAdjust="spacing" textLength="67" x="545" y="633.4092">Not SPAM</text><path d="M492,601.1172 L502,601.1172 C517,601.1172 517,628.5625 532,628.5625 L542,628.5625 " fill="none" style="stroke:#181818;stroke-width:1.0;"/><text fill="#000000" font-family="sans-serif" font-size="14" lengthAdjust="spacing" textLength="42" x="545" y="651.7061">'Hook'</text><path d="M492,601.1172 L502,601.1172 C517,601.1172 517,646.8594 532,646.8594 L542,646.8594 " fill="none" style="stroke:#181818;stroke-width:1.0;"/><text fill="#000000" font-family="sans-serif" font-size="14" lengthAdjust="spacing" textLength="89" x="545" y="670.0029">Call to Action</text><path d="M492,601.1172 L502,601.1172 C517,601.1172 517,665.1563 532,665.1563 L542,665.1563 " fill="none" style="stroke:#181818;stroke-width:1.0;"/><text fill="#000000" font-family="sans-serif" font-size="14" lengthAdjust="spacing" textLength="35" x="545" y="706.5967">Story</text><text fill="#000000" font-family="sans-serif" font-size="14" lengthAdjust="spacing" textLength="124" x="637" y="688.2998">Quest / Challenge</text><path d="M584,701.75 L594,701.75 C609,701.75 609,683.4531 624,683.4531 L634,683.4531 " fill="none" style="stroke:#181818;stroke-width:1.0;"/><text fill="#000000" font-family="sans-serif" font-size="14" lengthAdjust="spacing" textLength="75" x="637" y="706.5967">Power/ Gift</text><path d="M584,701.75 L594,701.75 C609,701.75 609,701.75 624,701.75 L634,701.75 " fill="none" style="stroke:#181818;stroke-width:1.0;"/><text fill="#000000" font-family="sans-serif" font-size="14" lengthAdjust="spacing" textLength="59" x="637" y="724.8936">Success</text><path d="M584,701.75 L594,701.75 C609,701.75 609,720.0469 624,720.0469 L634,720.0469 " fill="none" style="stroke:#181818;stroke-width:1.0;"/><path d="M492,601.1172 L502,601.1172 C517,601.1172 517,701.75 532,701.75 L542,701.75 " fill="none" style="stroke:#181818;stroke-width:1.0;"/><path d="M305,594.7852 L315,594.7852 C330,594.7852 330,601.1172 345,601.1172 L355,601.1172 " fill="none" style="stroke:#181818;stroke-width:1.0;"/><rect fill="#F1F1F1" height="36.2969" rx="12.5" ry="12.5" style="stroke:#181818;stroke-width:1.5;" width="96" x="355" y="639.2656"/><text fill="#000000" font-family="sans-serif" font-size="14" lengthAdjust="spacing" textLength="76" x="365" y="662.2607">Reputation</text><path d="M305,594.7852 L315,594.7852 C330,594.7852 330,657.4141 345,657.4141 L355,657.4141 " fill="none" style="stroke:#181818;stroke-width:1.0;"/><path d="M98,454.043 L108,454.043 C123,454.043 123,594.7852 138,594.7852 L148,594.7852 " fill="none" style="stroke:#181818;stroke-width:1.0;"/><rect fill="#F1F1F1" height="36.2969" rx="12.5" ry="12.5" style="stroke:#181818;stroke-width:1.5;" width="64" x="148" y="795.4922"/><text fill="#000000" font-family="sans-serif" font-size="14" lengthAdjust="spacing" textLength="44" x="158" y="818.4873">Books</text><rect fill="#F1F1F1" height="36.2969" rx="12.5" ry="12.5" style="stroke:#181818;stroke-width:1.5;" width="189" x="262" y="739.1953"/><text fill="#000000" font-family="sans-serif" font-size="14" lengthAdjust="spacing" textLength="169" x="272" y="762.1904">Purple Cow (Seth Godin)</text><path d="M212,813.6406 L222,813.6406 C237,813.6406 237,757.3438 252,757.3438 L262,757.3438 " fill="none" style="stroke:#181818;stroke-width:1.0;"/><rect fill="#F1F1F1" height="36.2969" rx="12.5" ry="12.5" style="stroke:#181818;stroke-width:1.5;" width="145" x="262" y="795.4922"/><text fill="#000000" font-family="sans-serif" font-size="14" lengthAdjust="spacing" textLength="125" x="272" y="818.4873">PersonalMBA.com</text><path d="M212,813.6406 L222,813.6406 C237,813.6406 237,813.6406 252,813.6406 L262,813.6406 " fill="none" style="stroke:#181818;stroke-width:1.0;"/><rect fill="#F1F1F1" height="36.2969" rx="12.5" ry="12.5" style="stroke:#181818;stroke-width:1.5;" width="64" x="262" y="851.7891"/><text fill="#000000" font-family="sans-serif" font-size="14" lengthAdjust="spacing" textLength="44" x="272" y="874.7842">Driven</text><path d="M212,813.6406 L222,813.6406 C237,813.6406 237,869.9375 252,869.9375 L262,869.9375 " fill="none" style="stroke:#181818;stroke-width:1.0;"/><path d="M98,454.043 L108,454.043 C123,454.043 123,813.6406 138,813.6406 L148,813.6406 " fill="none" style="stroke:#181818;stroke-width:1.0;"/><!--SRC=[JLFBSY8n3BpFL-W6eIgJmAPIAKxXdSqoMSAGx75Bp0XmuR5PFuRaxrVpSCZDakoMkjL-j0wDAuJA2pn5FKZG7Ca9jOzwFHWvHye9hJZemLn8HwOfzM1D6PsSA8NxhEBUN_XpGFTr9DKUDoYaDfHNU2kZjxYL12jliWDQCZLKPtH6GugixRIFtXHMgJQAu_OmzrBMBoRU26qlhITQEQDBChREm9Iiu9v0AWT3ralNfWkjh3COEF5JYlSn_5GxNP3913Ruhnwbs8di-yM6FdXrHkKQFerOCEFcdt03im_XuAI5ShP6MOeTmQoaDcQC5ph36BUVty8CJIrrdlEWjbQdWQqXPYmIw1rWbd6ruNv0fKWs0IjQwYFlfANS0Z_v0XLCZIZ9GftZPAehVf0wTDw6v6ozQDzqwkkg4ogZx9yFY1oEjSh3UKbeL0YcjADBQKuaWs06YzOj5VpS47MWHEd3b2_QGReQ9U76azR73eILefJWD8_nRGUfqwnqwFNgoJhMdHMHajJ-QzQLFfEvWONOkI_o_gBWcaxUXTKoCNrinVJcnF9Fz1cwARa3B7Gkr5LJOszfXJ8PZ-9C5usTQi6YHwOVFb2qakoEjsG9bHcv0_JZmUrW4FVlkXjFB5O6j_VGVnWExeRz7x18Db3LhwBkOhK4g_bZ4EI2JIgslXhnAdh64c7j-ICMD8JV9rBFqryXmUOhXT6gO9T5p-_9vSBztVMO_PYIuL7WFObuKSW_WLza5Q_z4Dusy-k7Q8bgxt7Fs4ncedtbPgwb_m40]--></g></svg>